{
	"patcher" : 	{
		"fileversion" : 1,
		"rect" : [ 23.0, 66.0, 218.0, 263.0 ],
		"bglocked" : 0,
		"defrect" : [ 23.0, 66.0, 218.0, 263.0 ],
		"openrect" : [ 0.0, 0.0, 0.0, 0.0 ],
		"openinpresentation" : 0,
		"default_fontsize" : 12.0,
		"default_fontface" : 0,
		"default_fontname" : "Arial",
		"gridonopen" : 0,
		"gridsize" : [ 15.0, 15.0 ],
		"gridsnaponopen" : 0,
		"toolbarvisible" : 1,
		"boxanimatetime" : 200,
		"imprint" : 0,
		"enablehscroll" : 1,
		"enablevscroll" : 1,
		"devicewidth" : 0.0,
		"boxes" : [ 			{
				"box" : 				{
					"maxclass" : "newobj",
					"text" : "random",
					"numinlets" : 2,
					"fontname" : "Geneva",
					"numoutlets" : 1,
					"patching_rect" : [ 39.0, 115.0, 50.0, 19.0 ],
					"id" : "obj-1",
					"outlettype" : [ "int" ],
					"fontsize" : 9.0
				}

			}
, 			{
				"box" : 				{
					"maxclass" : "inlet",
					"numinlets" : 0,
					"numoutlets" : 1,
					"patching_rect" : [ 39.0, 36.0, 15.0, 15.0 ],
					"id" : "obj-2",
					"outlettype" : [ "" ],
					"comment" : "bang (one alea-selection from the supply)"
				}

			}
, 			{
				"box" : 				{
					"maxclass" : "outlet",
					"numinlets" : 1,
					"numoutlets" : 0,
					"patching_rect" : [ 39.0, 172.0, 15.0, 15.0 ],
					"id" : "obj-3",
					"comment" : "chosen element from supply"
				}

			}
, 			{
				"box" : 				{
					"maxclass" : "outlet",
					"numinlets" : 1,
					"numoutlets" : 0,
					"patching_rect" : [ 67.0, 172.0, 15.0, 15.0 ],
					"id" : "obj-4",
					"comment" : "chosen index of supply"
				}

			}
, 			{
				"box" : 				{
					"maxclass" : "comment",
					"text" : "1993-98 by Karlheinz Essl",
					"numinlets" : 1,
					"fontname" : "Geneva",
					"numoutlets" : 0,
					"patching_rect" : [ 37.0, 193.0, 129.0, 19.0 ],
					"id" : "obj-5",
					"fontsize" : 9.0
				}

			}
, 			{
				"box" : 				{
					"maxclass" : "newobj",
					"text" : "nth",
					"numinlets" : 2,
					"fontname" : "Geneva",
					"numoutlets" : 1,
					"patching_rect" : [ 39.0, 144.0, 92.0, 19.0 ],
					"id" : "obj-6",
					"outlettype" : [ "" ],
					"fontsize" : 9.0
				}

			}
, 			{
				"box" : 				{
					"maxclass" : "newobj",
					"text" : "listlen",
					"numinlets" : 1,
					"fontname" : "Geneva",
					"numoutlets" : 1,
					"patching_rect" : [ 70.0, 72.0, 36.0, 19.0 ],
					"id" : "obj-7",
					"outlettype" : [ "" ],
					"fontsize" : 9.0
				}

			}
, 			{
				"box" : 				{
					"maxclass" : "inlet",
					"numinlets" : 0,
					"numoutlets" : 1,
					"patching_rect" : [ 112.0, 36.0, 15.0, 15.0 ],
					"id" : "obj-8",
					"outlettype" : [ "" ],
					"comment" : "supply (any list)"
				}

			}
, 			{
				"box" : 				{
					"maxclass" : "message",
					"text" : "seed $1",
					"numinlets" : 2,
					"fontname" : "Geneva",
					"numoutlets" : 1,
					"patching_rect" : [ 138.0, 99.0, 46.0, 17.0 ],
					"id" : "obj-9",
					"outlettype" : [ "" ],
					"fontsize" : 9.0
				}

			}
, 			{
				"box" : 				{
					"maxclass" : "number",
					"numinlets" : 1,
					"fontname" : "Geneva",
					"numoutlets" : 2,
					"patching_rect" : [ 138.0, 72.0, 35.0, 19.0 ],
					"id" : "obj-10",
					"outlettype" : [ "int", "bang" ],
					"fontsize" : 9.0,
					"triscale" : 0.9
				}

			}
, 			{
				"box" : 				{
					"maxclass" : "newobj",
					"text" : "r RTC-rs",
					"numinlets" : 0,
					"fontname" : "Geneva",
					"numoutlets" : 1,
					"patching_rect" : [ 138.0, 36.0, 49.0, 19.0 ],
					"id" : "obj-11",
					"outlettype" : [ "" ],
					"fontsize" : 9.0
				}

			}
, 			{
				"box" : 				{
					"maxclass" : "comment",
					"text" : "vs. 1.1",
					"numinlets" : 1,
					"fontname" : "Geneva",
					"numoutlets" : 0,
					"patching_rect" : [ 84.0, 173.0, 40.0, 19.0 ],
					"id" : "obj-12",
					"fontsize" : 9.0
				}

			}
 ],
		"lines" : [ 			{
				"patchline" : 				{
					"source" : [ "obj-9", 0 ],
					"destination" : [ "obj-1", 0 ],
					"hidden" : 0,
					"midpoints" : [  ]
				}

			}
, 			{
				"patchline" : 				{
					"source" : [ "obj-10", 0 ],
					"destination" : [ "obj-9", 0 ],
					"hidden" : 0,
					"midpoints" : [  ]
				}

			}
, 			{
				"patchline" : 				{
					"source" : [ "obj-7", 0 ],
					"destination" : [ "obj-1", 1 ],
					"hidden" : 0,
					"midpoints" : [  ]
				}

			}
, 			{
				"patchline" : 				{
					"source" : [ "obj-6", 0 ],
					"destination" : [ "obj-3", 0 ],
					"hidden" : 0,
					"midpoints" : [  ]
				}

			}
, 			{
				"patchline" : 				{
					"source" : [ "obj-8", 0 ],
					"destination" : [ "obj-7", 0 ],
					"hidden" : 0,
					"midpoints" : [  ]
				}

			}
, 			{
				"patchline" : 				{
					"source" : [ "obj-8", 0 ],
					"destination" : [ "obj-6", 1 ],
					"hidden" : 0,
					"midpoints" : [  ]
				}

			}
, 			{
				"patchline" : 				{
					"source" : [ "obj-2", 0 ],
					"destination" : [ "obj-1", 0 ],
					"hidden" : 0,
					"midpoints" : [  ]
				}

			}
, 			{
				"patchline" : 				{
					"source" : [ "obj-1", 0 ],
					"destination" : [ "obj-4", 0 ],
					"hidden" : 0,
					"midpoints" : [  ]
				}

			}
, 			{
				"patchline" : 				{
					"source" : [ "obj-1", 0 ],
					"destination" : [ "obj-6", 0 ],
					"hidden" : 0,
					"midpoints" : [  ]
				}

			}
, 			{
				"patchline" : 				{
					"source" : [ "obj-11", 0 ],
					"destination" : [ "obj-10", 0 ],
					"hidden" : 0,
					"midpoints" : [  ]
				}

			}
 ]
	}

}
