{
	"patcher" : 	{
		"fileversion" : 1,
		"rect" : [ 139.0, 106.0, 308.0, 322.0 ],
		"bglocked" : 0,
		"defrect" : [ 139.0, 106.0, 308.0, 322.0 ],
		"openrect" : [ 0.0, 0.0, 0.0, 0.0 ],
		"openinpresentation" : 0,
		"default_fontsize" : 12.0,
		"default_fontface" : 0,
		"default_fontname" : "Arial",
		"gridonopen" : 0,
		"gridsize" : [ 15.0, 15.0 ],
		"gridsnaponopen" : 0,
		"toolbarvisible" : 1,
		"boxanimatetime" : 200,
		"imprint" : 0,
		"enablehscroll" : 1,
		"enablevscroll" : 1,
		"devicewidth" : 0.0,
		"boxes" : [ 			{
				"box" : 				{
					"maxclass" : "comment",
					"text" : "vs. 1.1",
					"numinlets" : 1,
					"fontname" : "Geneva",
					"numoutlets" : 0,
					"patching_rect" : [ 143.0, 235.0, 40.0, 19.0 ],
					"id" : "obj-1",
					"fontsize" : 9.0
				}

			}
, 			{
				"box" : 				{
					"maxclass" : "comment",
					"text" : "1996-98 by Karlheinz Essl",
					"numinlets" : 1,
					"fontname" : "Geneva",
					"numoutlets" : 0,
					"patching_rect" : [ 143.0, 221.0, 129.0, 19.0 ],
					"id" : "obj-2",
					"fontsize" : 9.0
				}

			}
, 			{
				"box" : 				{
					"maxclass" : "message",
					"text" : "seed $1",
					"numinlets" : 2,
					"fontname" : "Geneva",
					"numoutlets" : 1,
					"patching_rect" : [ 28.0, 98.0, 46.0, 17.0 ],
					"id" : "obj-3",
					"outlettype" : [ "" ],
					"fontsize" : 9.0
				}

			}
, 			{
				"box" : 				{
					"maxclass" : "number",
					"numinlets" : 1,
					"fontname" : "Geneva",
					"numoutlets" : 2,
					"patching_rect" : [ 28.0, 70.0, 35.0, 19.0 ],
					"id" : "obj-4",
					"outlettype" : [ "int", "bang" ],
					"fontsize" : 9.0,
					"triscale" : 0.9
				}

			}
, 			{
				"box" : 				{
					"maxclass" : "newobj",
					"text" : "r RTC-rs",
					"numinlets" : 0,
					"fontname" : "Geneva",
					"numoutlets" : 1,
					"patching_rect" : [ 28.0, 35.0, 49.0, 19.0 ],
					"id" : "obj-5",
					"outlettype" : [ "" ],
					"fontsize" : 9.0
				}

			}
, 			{
				"box" : 				{
					"maxclass" : "outlet",
					"numinlets" : 1,
					"numoutlets" : 0,
					"patching_rect" : [ 99.0, 221.0, 15.0, 15.0 ],
					"id" : "obj-6",
					"comment" : "out"
				}

			}
, 			{
				"box" : 				{
					"maxclass" : "button",
					"numinlets" : 1,
					"numoutlets" : 1,
					"patching_rect" : [ 99.0, 64.0, 15.0, 15.0 ],
					"id" : "obj-7",
					"outlettype" : [ "bang" ]
				}

			}
, 			{
				"box" : 				{
					"maxclass" : "newobj",
					"text" : "int #3",
					"numinlets" : 2,
					"fontname" : "Geneva",
					"numoutlets" : 1,
					"patching_rect" : [ 186.0, 106.0, 36.0, 19.0 ],
					"id" : "obj-8",
					"outlettype" : [ "int" ],
					"fontsize" : 9.0
				}

			}
, 			{
				"box" : 				{
					"maxclass" : "newobj",
					"text" : "- 1",
					"numinlets" : 2,
					"fontname" : "Geneva",
					"numoutlets" : 1,
					"patching_rect" : [ 186.0, 161.0, 25.0, 19.0 ],
					"id" : "obj-9",
					"outlettype" : [ "int" ],
					"fontsize" : 9.0
				}

			}
, 			{
				"box" : 				{
					"maxclass" : "inlet",
					"numinlets" : 0,
					"numoutlets" : 1,
					"patching_rect" : [ 128.0, 161.0, 15.0, 15.0 ],
					"id" : "obj-10",
					"outlettype" : [ "" ],
					"comment" : "min"
				}

			}
, 			{
				"box" : 				{
					"maxclass" : "inlet",
					"numinlets" : 0,
					"numoutlets" : 1,
					"patching_rect" : [ 157.0, 161.0, 15.0, 15.0 ],
					"id" : "obj-11",
					"outlettype" : [ "" ],
					"comment" : "max"
				}

			}
, 			{
				"box" : 				{
					"maxclass" : "newobj",
					"text" : "trans-log #1 #2",
					"numinlets" : 4,
					"fontname" : "Geneva",
					"numoutlets" : 1,
					"patching_rect" : [ 99.0, 186.0, 106.0, 19.0 ],
					"id" : "obj-12",
					"outlettype" : [ "float" ],
					"fontsize" : 9.0
				}

			}
, 			{
				"box" : 				{
					"maxclass" : "newobj",
					"text" : "urn #3",
					"numinlets" : 2,
					"fontname" : "Geneva",
					"numoutlets" : 2,
					"patching_rect" : [ 99.0, 133.0, 59.0, 19.0 ],
					"id" : "obj-13",
					"outlettype" : [ "int", "bang" ],
					"fontsize" : 9.0
				}

			}
, 			{
				"box" : 				{
					"maxclass" : "inlet",
					"numinlets" : 0,
					"numoutlets" : 1,
					"patching_rect" : [ 186.0, 35.0, 15.0, 15.0 ],
					"id" : "obj-14",
					"outlettype" : [ "" ],
					"comment" : "steps"
				}

			}
, 			{
				"box" : 				{
					"maxclass" : "inlet",
					"numinlets" : 0,
					"numoutlets" : 1,
					"patching_rect" : [ 99.0, 35.0, 15.0, 15.0 ],
					"id" : "obj-15",
					"outlettype" : [ "" ],
					"comment" : "bang"
				}

			}
, 			{
				"box" : 				{
					"maxclass" : "outlet",
					"numinlets" : 1,
					"numoutlets" : 0,
					"patching_rect" : [ 125.0, 221.0, 15.0, 15.0 ],
					"id" : "obj-16",
					"comment" : "index"
				}

			}
, 			{
				"box" : 				{
					"maxclass" : "message",
					"text" : "clear, bang",
					"numinlets" : 2,
					"fontname" : "Geneva",
					"numoutlets" : 1,
					"patching_rect" : [ 111.0, 107.0, 58.0, 17.0 ],
					"id" : "obj-17",
					"outlettype" : [ "" ],
					"fontsize" : 9.0
				}

			}
 ],
		"lines" : [ 			{
				"patchline" : 				{
					"source" : [ "obj-8", 0 ],
					"destination" : [ "obj-9", 0 ],
					"hidden" : 0,
					"midpoints" : [  ]
				}

			}
, 			{
				"patchline" : 				{
					"source" : [ "obj-8", 0 ],
					"destination" : [ "obj-13", 1 ],
					"hidden" : 0,
					"midpoints" : [  ]
				}

			}
, 			{
				"patchline" : 				{
					"source" : [ "obj-4", 0 ],
					"destination" : [ "obj-3", 0 ],
					"hidden" : 0,
					"midpoints" : [  ]
				}

			}
, 			{
				"patchline" : 				{
					"source" : [ "obj-5", 0 ],
					"destination" : [ "obj-4", 0 ],
					"hidden" : 0,
					"midpoints" : [  ]
				}

			}
, 			{
				"patchline" : 				{
					"source" : [ "obj-13", 0 ],
					"destination" : [ "obj-16", 0 ],
					"hidden" : 0,
					"midpoints" : [  ]
				}

			}
, 			{
				"patchline" : 				{
					"source" : [ "obj-13", 1 ],
					"destination" : [ "obj-17", 0 ],
					"hidden" : 0,
					"midpoints" : [  ]
				}

			}
, 			{
				"patchline" : 				{
					"source" : [ "obj-13", 0 ],
					"destination" : [ "obj-12", 0 ],
					"hidden" : 0,
					"midpoints" : [  ]
				}

			}
, 			{
				"patchline" : 				{
					"source" : [ "obj-12", 0 ],
					"destination" : [ "obj-6", 0 ],
					"hidden" : 0,
					"midpoints" : [  ]
				}

			}
, 			{
				"patchline" : 				{
					"source" : [ "obj-9", 0 ],
					"destination" : [ "obj-12", 3 ],
					"hidden" : 0,
					"midpoints" : [  ]
				}

			}
, 			{
				"patchline" : 				{
					"source" : [ "obj-14", 0 ],
					"destination" : [ "obj-8", 0 ],
					"hidden" : 0,
					"midpoints" : [  ]
				}

			}
, 			{
				"patchline" : 				{
					"source" : [ "obj-15", 0 ],
					"destination" : [ "obj-7", 0 ],
					"hidden" : 0,
					"midpoints" : [  ]
				}

			}
, 			{
				"patchline" : 				{
					"source" : [ "obj-11", 0 ],
					"destination" : [ "obj-12", 2 ],
					"hidden" : 0,
					"midpoints" : [  ]
				}

			}
, 			{
				"patchline" : 				{
					"source" : [ "obj-10", 0 ],
					"destination" : [ "obj-12", 1 ],
					"hidden" : 0,
					"midpoints" : [  ]
				}

			}
, 			{
				"patchline" : 				{
					"source" : [ "obj-7", 0 ],
					"destination" : [ "obj-8", 0 ],
					"hidden" : 0,
					"midpoints" : [  ]
				}

			}
, 			{
				"patchline" : 				{
					"source" : [ "obj-7", 0 ],
					"destination" : [ "obj-13", 0 ],
					"hidden" : 0,
					"midpoints" : [  ]
				}

			}
, 			{
				"patchline" : 				{
					"source" : [ "obj-3", 0 ],
					"destination" : [ "obj-13", 0 ],
					"hidden" : 0,
					"midpoints" : [  ]
				}

			}
, 			{
				"patchline" : 				{
					"source" : [ "obj-17", 0 ],
					"destination" : [ "obj-13", 0 ],
					"hidden" : 0,
					"midpoints" : [  ]
				}

			}
 ]
	}

}
