{
	"patcher" : 	{
		"fileversion" : 1,
		"rect" : [ 136.0, 65.0, 268.0, 430.0 ],
		"bglocked" : 0,
		"defrect" : [ 136.0, 65.0, 268.0, 430.0 ],
		"openrect" : [ 0.0, 0.0, 0.0, 0.0 ],
		"openinpresentation" : 0,
		"default_fontsize" : 12.0,
		"default_fontface" : 0,
		"default_fontname" : "Arial",
		"gridonopen" : 0,
		"gridsize" : [ 15.0, 15.0 ],
		"gridsnaponopen" : 0,
		"toolbarvisible" : 1,
		"boxanimatetime" : 200,
		"imprint" : 0,
		"enablehscroll" : 1,
		"enablevscroll" : 1,
		"devicewidth" : 0.0,
		"boxes" : [ 			{
				"box" : 				{
					"maxclass" : "newobj",
					"text" : "between #1",
					"numinlets" : 3,
					"fontname" : "Geneva",
					"numoutlets" : 1,
					"patching_rect" : [ 77.0, 148.0, 85.0, 19.0 ],
					"id" : "obj-1",
					"outlettype" : [ "int" ],
					"fontsize" : 9.0
				}

			}
, 			{
				"box" : 				{
					"maxclass" : "number",
					"numinlets" : 1,
					"fontname" : "Geneva",
					"numoutlets" : 2,
					"patching_rect" : [ 77.0, 179.0, 23.0, 19.0 ],
					"id" : "obj-2",
					"outlettype" : [ "int", "bang" ],
					"fontsize" : 9.0,
					"triscale" : 0.9
				}

			}
, 			{
				"box" : 				{
					"maxclass" : "newobj",
					"text" : "Uzi",
					"numinlets" : 2,
					"fontname" : "Geneva",
					"numoutlets" : 3,
					"patching_rect" : [ 60.0, 206.0, 27.0, 19.0 ],
					"id" : "obj-3",
					"outlettype" : [ "bang", "bang", "int" ],
					"fontsize" : 9.0
				}

			}
, 			{
				"box" : 				{
					"maxclass" : "newobj",
					"text" : "+ 1",
					"numinlets" : 2,
					"fontname" : "Geneva",
					"numoutlets" : 1,
					"patching_rect" : [ 143.0, 123.0, 25.0, 19.0 ],
					"id" : "obj-4",
					"outlettype" : [ "int" ],
					"fontsize" : 9.0
				}

			}
, 			{
				"box" : 				{
					"maxclass" : "newobj",
					"text" : "int #2",
					"numinlets" : 2,
					"fontname" : "Geneva",
					"numoutlets" : 1,
					"patching_rect" : [ 143.0, 96.0, 36.0, 19.0 ],
					"id" : "obj-5",
					"outlettype" : [ "int" ],
					"fontsize" : 9.0
				}

			}
, 			{
				"box" : 				{
					"maxclass" : "newobj",
					"text" : "int #4",
					"numinlets" : 2,
					"fontname" : "Geneva",
					"numoutlets" : 1,
					"patching_rect" : [ 126.0, 199.0, 36.0, 19.0 ],
					"id" : "obj-6",
					"outlettype" : [ "int" ],
					"fontsize" : 9.0
				}

			}
, 			{
				"box" : 				{
					"maxclass" : "newobj",
					"text" : "between #3 #4",
					"numinlets" : 3,
					"fontname" : "Geneva",
					"numoutlets" : 1,
					"patching_rect" : [ 60.0, 253.0, 85.0, 19.0 ],
					"id" : "obj-7",
					"outlettype" : [ "int" ],
					"fontsize" : 9.0
				}

			}
, 			{
				"box" : 				{
					"maxclass" : "outlet",
					"numinlets" : 1,
					"numoutlets" : 0,
					"patching_rect" : [ 60.0, 340.0, 15.0, 15.0 ],
					"id" : "obj-8",
					"comment" : "list"
				}

			}
, 			{
				"box" : 				{
					"maxclass" : "newobj",
					"text" : "+ 1",
					"numinlets" : 2,
					"fontname" : "Geneva",
					"numoutlets" : 1,
					"patching_rect" : [ 126.0, 226.0, 27.0, 19.0 ],
					"id" : "obj-9",
					"outlettype" : [ "int" ],
					"fontsize" : 9.0
				}

			}
, 			{
				"box" : 				{
					"maxclass" : "comment",
					"text" : "selects list elements",
					"linecount" : 2,
					"numinlets" : 1,
					"fontname" : "Geneva",
					"numoutlets" : 0,
					"patching_rect" : [ 148.0, 246.0, 65.0, 31.0 ],
					"id" : "obj-10",
					"fontsize" : 9.0
				}

			}
, 			{
				"box" : 				{
					"maxclass" : "comment",
					"text" : "selects list size",
					"linecount" : 2,
					"numinlets" : 1,
					"fontname" : "Geneva",
					"numoutlets" : 0,
					"patching_rect" : [ 163.0, 146.0, 45.0, 31.0 ],
					"id" : "obj-11",
					"fontsize" : 9.0
				}

			}
, 			{
				"box" : 				{
					"maxclass" : "message",
					"numinlets" : 2,
					"fontname" : "Geneva",
					"numoutlets" : 1,
					"patching_rect" : [ 60.0, 313.0, 118.0, 17.0 ],
					"id" : "obj-12",
					"outlettype" : [ "" ],
					"fontsize" : 9.0
				}

			}
, 			{
				"box" : 				{
					"maxclass" : "comment",
					"text" : "generate a new list",
					"linecount" : 2,
					"numinlets" : 1,
					"fontname" : "Geneva",
					"numoutlets" : 0,
					"patching_rect" : [ 7.0, 67.0, 50.0, 31.0 ],
					"id" : "obj-13",
					"fontsize" : 9.0
				}

			}
, 			{
				"box" : 				{
					"maxclass" : "inlet",
					"numinlets" : 0,
					"numoutlets" : 1,
					"patching_rect" : [ 110.0, 35.0, 15.0, 15.0 ],
					"id" : "obj-14",
					"outlettype" : [ "" ],
					"comment" : "min. list length (int)"
				}

			}
, 			{
				"box" : 				{
					"maxclass" : "inlet",
					"numinlets" : 0,
					"numoutlets" : 1,
					"patching_rect" : [ 143.0, 35.0, 15.0, 15.0 ],
					"id" : "obj-15",
					"outlettype" : [ "" ],
					"comment" : "max. list-length (int)"
				}

			}
, 			{
				"box" : 				{
					"maxclass" : "inlet",
					"numinlets" : 0,
					"numoutlets" : 1,
					"patching_rect" : [ 209.0, 35.0, 15.0, 15.0 ],
					"id" : "obj-16",
					"outlettype" : [ "" ],
					"comment" : "max. list element (int)"
				}

			}
, 			{
				"box" : 				{
					"maxclass" : "inlet",
					"numinlets" : 0,
					"numoutlets" : 1,
					"patching_rect" : [ 178.0, 35.0, 15.0, 15.0 ],
					"id" : "obj-17",
					"outlettype" : [ "" ],
					"comment" : "min. list element (int)"
				}

			}
, 			{
				"box" : 				{
					"maxclass" : "inlet",
					"numinlets" : 0,
					"numoutlets" : 1,
					"patching_rect" : [ 60.0, 35.0, 15.0, 15.0 ],
					"id" : "obj-18",
					"outlettype" : [ "" ],
					"comment" : "bang (generates new list)"
				}

			}
, 			{
				"box" : 				{
					"maxclass" : "button",
					"numinlets" : 1,
					"numoutlets" : 1,
					"patching_rect" : [ 60.0, 62.0, 23.0, 23.0 ],
					"id" : "obj-19",
					"outlettype" : [ "bang" ]
				}

			}
, 			{
				"box" : 				{
					"maxclass" : "comment",
					"text" : "1993-98 by Karlheinz Essl",
					"numinlets" : 1,
					"fontname" : "Geneva",
					"numoutlets" : 0,
					"patching_rect" : [ 81.0, 341.0, 129.0, 19.0 ],
					"id" : "obj-20",
					"fontsize" : 9.0
				}

			}
, 			{
				"box" : 				{
					"maxclass" : "outlet",
					"numinlets" : 1,
					"numoutlets" : 0,
					"patching_rect" : [ 99.0, 206.0, 15.0, 15.0 ],
					"id" : "obj-21",
					"comment" : "length of output list"
				}

			}
, 			{
				"box" : 				{
					"maxclass" : "newobj",
					"text" : "collect",
					"numinlets" : 2,
					"fontname" : "Geneva",
					"numoutlets" : 1,
					"patching_rect" : [ 60.0, 284.0, 142.0, 19.0 ],
					"id" : "obj-22",
					"outlettype" : [ "" ],
					"fontsize" : 9.0
				}

			}
, 			{
				"box" : 				{
					"maxclass" : "button",
					"numinlets" : 1,
					"numoutlets" : 1,
					"patching_rect" : [ 28.0, 284.0, 15.0, 15.0 ],
					"id" : "obj-23",
					"outlettype" : [ "bang" ]
				}

			}
, 			{
				"box" : 				{
					"maxclass" : "comment",
					"text" : "vs. 1.1",
					"numinlets" : 1,
					"fontname" : "Geneva",
					"numoutlets" : 0,
					"patching_rect" : [ 81.0, 355.0, 40.0, 19.0 ],
					"id" : "obj-24",
					"fontsize" : 9.0
				}

			}
 ],
		"lines" : [ 			{
				"patchline" : 				{
					"source" : [ "obj-1", 0 ],
					"destination" : [ "obj-2", 0 ],
					"hidden" : 0,
					"midpoints" : [  ]
				}

			}
, 			{
				"patchline" : 				{
					"source" : [ "obj-2", 0 ],
					"destination" : [ "obj-21", 0 ],
					"hidden" : 0,
					"midpoints" : [  ]
				}

			}
, 			{
				"patchline" : 				{
					"source" : [ "obj-2", 0 ],
					"destination" : [ "obj-3", 1 ],
					"hidden" : 0,
					"midpoints" : [  ]
				}

			}
, 			{
				"patchline" : 				{
					"source" : [ "obj-22", 0 ],
					"destination" : [ "obj-12", 0 ],
					"hidden" : 0,
					"midpoints" : [  ]
				}

			}
, 			{
				"patchline" : 				{
					"source" : [ "obj-19", 0 ],
					"destination" : [ "obj-22", 1 ],
					"hidden" : 0,
					"midpoints" : [  ]
				}

			}
, 			{
				"patchline" : 				{
					"source" : [ "obj-19", 0 ],
					"destination" : [ "obj-5", 0 ],
					"hidden" : 0,
					"midpoints" : [  ]
				}

			}
, 			{
				"patchline" : 				{
					"source" : [ "obj-19", 0 ],
					"destination" : [ "obj-1", 0 ],
					"hidden" : 0,
					"midpoints" : [  ]
				}

			}
, 			{
				"patchline" : 				{
					"source" : [ "obj-19", 0 ],
					"destination" : [ "obj-6", 0 ],
					"hidden" : 0,
					"midpoints" : [  ]
				}

			}
, 			{
				"patchline" : 				{
					"source" : [ "obj-19", 0 ],
					"destination" : [ "obj-3", 0 ],
					"hidden" : 0,
					"midpoints" : [  ]
				}

			}
, 			{
				"patchline" : 				{
					"source" : [ "obj-18", 0 ],
					"destination" : [ "obj-19", 0 ],
					"hidden" : 0,
					"midpoints" : [  ]
				}

			}
, 			{
				"patchline" : 				{
					"source" : [ "obj-19", 0 ],
					"destination" : [ "obj-23", 0 ],
					"hidden" : 0,
					"midpoints" : [  ]
				}

			}
, 			{
				"patchline" : 				{
					"source" : [ "obj-17", 0 ],
					"destination" : [ "obj-7", 1 ],
					"hidden" : 0,
					"midpoints" : [  ]
				}

			}
, 			{
				"patchline" : 				{
					"source" : [ "obj-16", 0 ],
					"destination" : [ "obj-6", 0 ],
					"hidden" : 0,
					"midpoints" : [  ]
				}

			}
, 			{
				"patchline" : 				{
					"source" : [ "obj-15", 0 ],
					"destination" : [ "obj-5", 0 ],
					"hidden" : 0,
					"midpoints" : [  ]
				}

			}
, 			{
				"patchline" : 				{
					"source" : [ "obj-14", 0 ],
					"destination" : [ "obj-1", 1 ],
					"hidden" : 0,
					"midpoints" : [  ]
				}

			}
, 			{
				"patchline" : 				{
					"source" : [ "obj-23", 0 ],
					"destination" : [ "obj-12", 0 ],
					"hidden" : 0,
					"midpoints" : [  ]
				}

			}
, 			{
				"patchline" : 				{
					"source" : [ "obj-12", 0 ],
					"destination" : [ "obj-8", 0 ],
					"hidden" : 0,
					"midpoints" : [  ]
				}

			}
, 			{
				"patchline" : 				{
					"source" : [ "obj-9", 0 ],
					"destination" : [ "obj-7", 2 ],
					"hidden" : 0,
					"midpoints" : [  ]
				}

			}
, 			{
				"patchline" : 				{
					"source" : [ "obj-5", 0 ],
					"destination" : [ "obj-4", 0 ],
					"hidden" : 0,
					"midpoints" : [  ]
				}

			}
, 			{
				"patchline" : 				{
					"source" : [ "obj-6", 0 ],
					"destination" : [ "obj-9", 0 ],
					"hidden" : 0,
					"midpoints" : [  ]
				}

			}
, 			{
				"patchline" : 				{
					"source" : [ "obj-7", 0 ],
					"destination" : [ "obj-22", 0 ],
					"hidden" : 0,
					"midpoints" : [  ]
				}

			}
, 			{
				"patchline" : 				{
					"source" : [ "obj-3", 0 ],
					"destination" : [ "obj-7", 0 ],
					"hidden" : 0,
					"midpoints" : [  ]
				}

			}
, 			{
				"patchline" : 				{
					"source" : [ "obj-4", 0 ],
					"destination" : [ "obj-1", 2 ],
					"hidden" : 0,
					"midpoints" : [  ]
				}

			}
 ]
	}

}
