{
	"patcher" : 	{
		"fileversion" : 1,
		"rect" : [ 182.0, 261.0, 268.0, 307.0 ],
		"bglocked" : 0,
		"defrect" : [ 182.0, 261.0, 268.0, 307.0 ],
		"openrect" : [ 0.0, 0.0, 0.0, 0.0 ],
		"openinpresentation" : 0,
		"default_fontsize" : 12.0,
		"default_fontface" : 0,
		"default_fontname" : "Arial",
		"gridonopen" : 0,
		"gridsize" : [ 15.0, 15.0 ],
		"gridsnaponopen" : 0,
		"toolbarvisible" : 1,
		"boxanimatetime" : 200,
		"imprint" : 0,
		"enablehscroll" : 1,
		"enablevscroll" : 1,
		"devicewidth" : 0.0,
		"boxes" : [ 			{
				"box" : 				{
					"maxclass" : "newobj",
					"text" : "del 10",
					"fontname" : "Geneva",
					"numinlets" : 2,
					"numoutlets" : 1,
					"fontsize" : 9.0,
					"outlettype" : [ "bang" ],
					"patching_rect" : [ 62.0, 66.0, 38.0, 19.0 ],
					"id" : "obj-1"
				}

			}
, 			{
				"box" : 				{
					"maxclass" : "newobj",
					"text" : "loadbang",
					"fontname" : "Geneva",
					"numinlets" : 1,
					"numoutlets" : 1,
					"fontsize" : 9.0,
					"outlettype" : [ "bang" ],
					"patching_rect" : [ 62.0, 43.0, 50.0, 19.0 ],
					"id" : "obj-2"
				}

			}
, 			{
				"box" : 				{
					"maxclass" : "newobj",
					"text" : "f #1",
					"fontname" : "Geneva",
					"numinlets" : 2,
					"numoutlets" : 1,
					"fontsize" : 9.0,
					"outlettype" : [ "float" ],
					"patching_rect" : [ 117.0, 68.0, 28.0, 19.0 ],
					"id" : "obj-3"
				}

			}
, 			{
				"box" : 				{
					"maxclass" : "flonum",
					"fontname" : "Geneva",
					"numinlets" : 1,
					"minimum" : 0.0,
					"triscale" : 0.9,
					"numoutlets" : 2,
					"maximum" : 10.0,
					"fontsize" : 9.0,
					"outlettype" : [ "float", "bang" ],
					"patching_rect" : [ 117.0, 125.0, 35.0, 19.0 ],
					"id" : "obj-4"
				}

			}
, 			{
				"box" : 				{
					"maxclass" : "newobj",
					"text" : "* 10.",
					"fontname" : "Geneva",
					"numinlets" : 2,
					"numoutlets" : 1,
					"fontsize" : 9.0,
					"outlettype" : [ "float" ],
					"patching_rect" : [ 117.0, 96.0, 33.0, 19.0 ],
					"id" : "obj-5"
				}

			}
, 			{
				"box" : 				{
					"maxclass" : "inlet",
					"numinlets" : 0,
					"numoutlets" : 1,
					"outlettype" : [ "" ],
					"patching_rect" : [ 117.0, 43.0, 15.0, 15.0 ],
					"id" : "obj-6",
					"comment" : "delay (ms)"
				}

			}
, 			{
				"box" : 				{
					"maxclass" : "newobj",
					"text" : "p delay-R",
					"fontname" : "Geneva",
					"numinlets" : 1,
					"numoutlets" : 1,
					"fontsize" : 9.0,
					"outlettype" : [ "signal" ],
					"patching_rect" : [ 117.0, 146.0, 50.0, 19.0 ],
					"id" : "obj-7",
					"patcher" : 					{
						"fileversion" : 1,
						"rect" : [ 304.0, 44.0, 230.0, 354.0 ],
						"bglocked" : 0,
						"defrect" : [ 304.0, 44.0, 230.0, 354.0 ],
						"openrect" : [ 0.0, 0.0, 0.0, 0.0 ],
						"openinpresentation" : 0,
						"default_fontsize" : 12.0,
						"default_fontface" : 0,
						"default_fontname" : "Arial",
						"gridonopen" : 0,
						"gridsize" : [ 15.0, 15.0 ],
						"gridsnaponopen" : 0,
						"toolbarvisible" : 1,
						"boxanimatetime" : 200,
						"imprint" : 0,
						"enablehscroll" : 1,
						"enablevscroll" : 1,
						"devicewidth" : 0.0,
						"boxes" : [ 							{
								"box" : 								{
									"maxclass" : "inlet",
									"numinlets" : 0,
									"numoutlets" : 1,
									"outlettype" : [ "float" ],
									"patching_rect" : [ 106.0, 43.0, 15.0, 15.0 ],
									"id" : "obj-1",
									"comment" : "delay (ms)"
								}

							}
, 							{
								"box" : 								{
									"maxclass" : "message",
									"text" : "$1 500",
									"fontname" : "Geneva",
									"numinlets" : 2,
									"numoutlets" : 1,
									"fontsize" : 9.0,
									"outlettype" : [ "" ],
									"patching_rect" : [ 73.0, 206.0, 41.0, 17.0 ],
									"id" : "obj-2"
								}

							}
, 							{
								"box" : 								{
									"maxclass" : "flonum",
									"fontname" : "Geneva",
									"numinlets" : 1,
									"triscale" : 0.9,
									"numoutlets" : 2,
									"fontsize" : 9.0,
									"outlettype" : [ "float", "bang" ],
									"patching_rect" : [ 73.0, 186.0, 35.0, 19.0 ],
									"id" : "obj-3"
								}

							}
, 							{
								"box" : 								{
									"maxclass" : "newobj",
									"text" : "line~ 200",
									"fontname" : "Geneva",
									"numinlets" : 2,
									"numoutlets" : 2,
									"fontsize" : 9.0,
									"outlettype" : [ "signal", "bang" ],
									"patching_rect" : [ 73.0, 228.0, 51.0, 19.0 ],
									"id" : "obj-4"
								}

							}
, 							{
								"box" : 								{
									"maxclass" : "newobj",
									"text" : "between 0. 5.",
									"fontname" : "Geneva",
									"numinlets" : 3,
									"numoutlets" : 1,
									"fontsize" : 9.0,
									"outlettype" : [ "float" ],
									"patching_rect" : [ 73.0, 160.0, 93.0, 19.0 ],
									"id" : "obj-5"
								}

							}
, 							{
								"box" : 								{
									"maxclass" : "newobj",
									"text" : "metro 500",
									"fontname" : "Geneva",
									"numinlets" : 2,
									"numoutlets" : 1,
									"fontsize" : 9.0,
									"outlettype" : [ "bang" ],
									"patching_rect" : [ 73.0, 136.0, 58.0, 19.0 ],
									"id" : "obj-6"
								}

							}
, 							{
								"box" : 								{
									"maxclass" : "message",
									"text" : "1",
									"fontname" : "Geneva",
									"numinlets" : 2,
									"numoutlets" : 1,
									"fontsize" : 9.0,
									"outlettype" : [ "" ],
									"patching_rect" : [ 73.0, 93.0, 16.0, 17.0 ],
									"id" : "obj-7"
								}

							}
, 							{
								"box" : 								{
									"maxclass" : "toggle",
									"numinlets" : 1,
									"numoutlets" : 1,
									"outlettype" : [ "int" ],
									"patching_rect" : [ 73.0, 114.0, 15.0, 15.0 ],
									"id" : "obj-8"
								}

							}
, 							{
								"box" : 								{
									"maxclass" : "flonum",
									"fontname" : "Geneva",
									"numinlets" : 1,
									"minimum" : 0.0,
									"triscale" : 0.9,
									"numoutlets" : 2,
									"fontsize" : 9.0,
									"outlettype" : [ "float", "bang" ],
									"patching_rect" : [ 147.0, 136.0, 35.0, 19.0 ],
									"id" : "obj-9"
								}

							}
, 							{
								"box" : 								{
									"maxclass" : "outlet",
									"numinlets" : 1,
									"numoutlets" : 0,
									"patching_rect" : [ 73.0, 266.0, 15.0, 15.0 ],
									"id" : "obj-10",
									"comment" : "delay time L"
								}

							}
, 							{
								"box" : 								{
									"maxclass" : "newobj",
									"text" : "sel 0",
									"fontname" : "Geneva",
									"numinlets" : 2,
									"numoutlets" : 2,
									"fontsize" : 9.0,
									"outlettype" : [ "bang", "" ],
									"patching_rect" : [ 32.0, 136.0, 30.0, 19.0 ],
									"id" : "obj-11"
								}

							}
, 							{
								"box" : 								{
									"maxclass" : "message",
									"text" : "0",
									"fontname" : "Geneva",
									"numinlets" : 2,
									"numoutlets" : 1,
									"fontsize" : 9.0,
									"outlettype" : [ "" ],
									"patching_rect" : [ 32.0, 160.0, 16.0, 17.0 ],
									"id" : "obj-12"
								}

							}
, 							{
								"box" : 								{
									"maxclass" : "number~",
									"fontname" : "Geneva",
									"numinlets" : 2,
									"mode" : 2,
									"numoutlets" : 2,
									"sig" : 0.0,
									"fontsize" : 9.0,
									"outlettype" : [ "signal", "float" ],
									"patching_rect" : [ 119.0, 263.0, 39.0, 19.0 ],
									"id" : "obj-13",
									"interval" : 250.0
								}

							}
, 							{
								"box" : 								{
									"maxclass" : "newobj",
									"text" : "sel 0.",
									"fontname" : "Geneva",
									"numinlets" : 1,
									"numoutlets" : 2,
									"fontsize" : 9.0,
									"outlettype" : [ "bang", "" ],
									"patching_rect" : [ 106.0, 68.0, 60.0, 19.0 ],
									"id" : "obj-14"
								}

							}
, 							{
								"box" : 								{
									"maxclass" : "button",
									"numinlets" : 1,
									"numoutlets" : 1,
									"outlettype" : [ "bang" ],
									"patching_rect" : [ 89.0, 93.0, 15.0, 15.0 ],
									"id" : "obj-15"
								}

							}
, 							{
								"box" : 								{
									"maxclass" : "message",
									"text" : "0",
									"fontname" : "Geneva",
									"numinlets" : 2,
									"numoutlets" : 1,
									"fontsize" : 9.0,
									"outlettype" : [ "" ],
									"patching_rect" : [ 106.0, 93.0, 16.0, 17.0 ],
									"id" : "obj-16"
								}

							}
 ],
						"lines" : [ 							{
								"patchline" : 								{
									"source" : [ "obj-9", 0 ],
									"destination" : [ "obj-5", 2 ],
									"hidden" : 0,
									"midpoints" : [  ]
								}

							}
, 							{
								"patchline" : 								{
									"source" : [ "obj-8", 0 ],
									"destination" : [ "obj-6", 0 ],
									"hidden" : 0,
									"midpoints" : [  ]
								}

							}
, 							{
								"patchline" : 								{
									"source" : [ "obj-8", 0 ],
									"destination" : [ "obj-11", 0 ],
									"hidden" : 0,
									"midpoints" : [  ]
								}

							}
, 							{
								"patchline" : 								{
									"source" : [ "obj-14", 1 ],
									"destination" : [ "obj-9", 0 ],
									"hidden" : 0,
									"midpoints" : [  ]
								}

							}
, 							{
								"patchline" : 								{
									"source" : [ "obj-14", 0 ],
									"destination" : [ "obj-16", 0 ],
									"hidden" : 0,
									"midpoints" : [  ]
								}

							}
, 							{
								"patchline" : 								{
									"source" : [ "obj-14", 1 ],
									"destination" : [ "obj-15", 0 ],
									"hidden" : 0,
									"midpoints" : [  ]
								}

							}
, 							{
								"patchline" : 								{
									"source" : [ "obj-11", 0 ],
									"destination" : [ "obj-12", 0 ],
									"hidden" : 0,
									"midpoints" : [  ]
								}

							}
, 							{
								"patchline" : 								{
									"source" : [ "obj-6", 0 ],
									"destination" : [ "obj-5", 0 ],
									"hidden" : 0,
									"midpoints" : [  ]
								}

							}
, 							{
								"patchline" : 								{
									"source" : [ "obj-15", 0 ],
									"destination" : [ "obj-7", 0 ],
									"hidden" : 0,
									"midpoints" : [  ]
								}

							}
, 							{
								"patchline" : 								{
									"source" : [ "obj-3", 0 ],
									"destination" : [ "obj-2", 0 ],
									"hidden" : 0,
									"midpoints" : [  ]
								}

							}
, 							{
								"patchline" : 								{
									"source" : [ "obj-16", 0 ],
									"destination" : [ "obj-8", 0 ],
									"hidden" : 0,
									"midpoints" : [  ]
								}

							}
, 							{
								"patchline" : 								{
									"source" : [ "obj-12", 0 ],
									"destination" : [ "obj-2", 0 ],
									"hidden" : 0,
									"midpoints" : [  ]
								}

							}
, 							{
								"patchline" : 								{
									"source" : [ "obj-1", 0 ],
									"destination" : [ "obj-14", 0 ],
									"hidden" : 0,
									"midpoints" : [  ]
								}

							}
, 							{
								"patchline" : 								{
									"source" : [ "obj-7", 0 ],
									"destination" : [ "obj-8", 0 ],
									"hidden" : 0,
									"midpoints" : [  ]
								}

							}
, 							{
								"patchline" : 								{
									"source" : [ "obj-5", 0 ],
									"destination" : [ "obj-3", 0 ],
									"hidden" : 0,
									"midpoints" : [  ]
								}

							}
, 							{
								"patchline" : 								{
									"source" : [ "obj-4", 0 ],
									"destination" : [ "obj-13", 0 ],
									"hidden" : 0,
									"midpoints" : [  ]
								}

							}
, 							{
								"patchline" : 								{
									"source" : [ "obj-4", 0 ],
									"destination" : [ "obj-10", 0 ],
									"hidden" : 0,
									"midpoints" : [  ]
								}

							}
, 							{
								"patchline" : 								{
									"source" : [ "obj-2", 0 ],
									"destination" : [ "obj-4", 0 ],
									"hidden" : 0,
									"midpoints" : [  ]
								}

							}
 ]
					}
,
					"saved_object_attributes" : 					{
						"default_fontname" : "Arial",
						"fontname" : "Arial",
						"default_fontsize" : 12.0,
						"fontface" : 0,
						"fontsize" : 12.0,
						"default_fontface" : 0,
						"globalpatchername" : ""
					}

				}

			}
, 			{
				"box" : 				{
					"maxclass" : "newobj",
					"text" : "p delay-L",
					"fontname" : "Geneva",
					"numinlets" : 1,
					"numoutlets" : 1,
					"fontsize" : 9.0,
					"outlettype" : [ "signal" ],
					"patching_rect" : [ 29.0, 146.0, 50.0, 19.0 ],
					"id" : "obj-8",
					"patcher" : 					{
						"fileversion" : 1,
						"rect" : [ 52.0, 44.0, 222.0, 342.0 ],
						"bglocked" : 0,
						"defrect" : [ 52.0, 44.0, 222.0, 342.0 ],
						"openrect" : [ 0.0, 0.0, 0.0, 0.0 ],
						"openinpresentation" : 0,
						"default_fontsize" : 12.0,
						"default_fontface" : 0,
						"default_fontname" : "Arial",
						"gridonopen" : 0,
						"gridsize" : [ 15.0, 15.0 ],
						"gridsnaponopen" : 0,
						"toolbarvisible" : 1,
						"boxanimatetime" : 200,
						"imprint" : 0,
						"enablehscroll" : 1,
						"enablevscroll" : 1,
						"devicewidth" : 0.0,
						"boxes" : [ 							{
								"box" : 								{
									"maxclass" : "inlet",
									"numinlets" : 0,
									"numoutlets" : 1,
									"outlettype" : [ "float" ],
									"patching_rect" : [ 99.0, 33.0, 15.0, 15.0 ],
									"id" : "obj-1",
									"comment" : "delay (ms)"
								}

							}
, 							{
								"box" : 								{
									"maxclass" : "message",
									"text" : "0",
									"fontname" : "Geneva",
									"numinlets" : 2,
									"numoutlets" : 1,
									"fontsize" : 9.0,
									"outlettype" : [ "" ],
									"patching_rect" : [ 99.0, 86.0, 16.0, 17.0 ],
									"id" : "obj-2"
								}

							}
, 							{
								"box" : 								{
									"maxclass" : "button",
									"numinlets" : 1,
									"numoutlets" : 1,
									"outlettype" : [ "bang" ],
									"patching_rect" : [ 82.0, 86.0, 15.0, 15.0 ],
									"id" : "obj-3"
								}

							}
, 							{
								"box" : 								{
									"maxclass" : "newobj",
									"text" : "sel 0.",
									"fontname" : "Geneva",
									"numinlets" : 1,
									"numoutlets" : 2,
									"fontsize" : 9.0,
									"outlettype" : [ "bang", "" ],
									"patching_rect" : [ 99.0, 61.0, 60.0, 19.0 ],
									"id" : "obj-4"
								}

							}
, 							{
								"box" : 								{
									"maxclass" : "number~",
									"fontname" : "Geneva",
									"numinlets" : 2,
									"mode" : 2,
									"numoutlets" : 2,
									"sig" : 0.0,
									"fontsize" : 9.0,
									"outlettype" : [ "signal", "float" ],
									"patching_rect" : [ 112.0, 256.0, 39.0, 19.0 ],
									"id" : "obj-5",
									"interval" : 250.0
								}

							}
, 							{
								"box" : 								{
									"maxclass" : "message",
									"text" : "0",
									"fontname" : "Geneva",
									"numinlets" : 2,
									"numoutlets" : 1,
									"fontsize" : 9.0,
									"outlettype" : [ "" ],
									"patching_rect" : [ 25.0, 153.0, 16.0, 17.0 ],
									"id" : "obj-6"
								}

							}
, 							{
								"box" : 								{
									"maxclass" : "newobj",
									"text" : "sel 0",
									"fontname" : "Geneva",
									"numinlets" : 2,
									"numoutlets" : 2,
									"fontsize" : 9.0,
									"outlettype" : [ "bang", "" ],
									"patching_rect" : [ 25.0, 129.0, 30.0, 19.0 ],
									"id" : "obj-7"
								}

							}
, 							{
								"box" : 								{
									"maxclass" : "outlet",
									"numinlets" : 1,
									"numoutlets" : 0,
									"patching_rect" : [ 66.0, 259.0, 15.0, 15.0 ],
									"id" : "obj-8",
									"comment" : "delay time L"
								}

							}
, 							{
								"box" : 								{
									"maxclass" : "flonum",
									"fontname" : "Geneva",
									"numinlets" : 1,
									"minimum" : 0.0,
									"triscale" : 0.9,
									"numoutlets" : 2,
									"fontsize" : 9.0,
									"outlettype" : [ "float", "bang" ],
									"patching_rect" : [ 140.0, 129.0, 35.0, 19.0 ],
									"id" : "obj-9"
								}

							}
, 							{
								"box" : 								{
									"maxclass" : "toggle",
									"numinlets" : 1,
									"numoutlets" : 1,
									"outlettype" : [ "int" ],
									"patching_rect" : [ 66.0, 107.0, 15.0, 15.0 ],
									"id" : "obj-10"
								}

							}
, 							{
								"box" : 								{
									"maxclass" : "message",
									"text" : "1",
									"fontname" : "Geneva",
									"numinlets" : 2,
									"numoutlets" : 1,
									"fontsize" : 9.0,
									"outlettype" : [ "" ],
									"patching_rect" : [ 66.0, 86.0, 16.0, 17.0 ],
									"id" : "obj-11"
								}

							}
, 							{
								"box" : 								{
									"maxclass" : "newobj",
									"text" : "metro 490",
									"fontname" : "Geneva",
									"numinlets" : 2,
									"numoutlets" : 1,
									"fontsize" : 9.0,
									"outlettype" : [ "bang" ],
									"patching_rect" : [ 66.0, 129.0, 58.0, 19.0 ],
									"id" : "obj-12"
								}

							}
, 							{
								"box" : 								{
									"maxclass" : "newobj",
									"text" : "between 0. 5.",
									"fontname" : "Geneva",
									"numinlets" : 3,
									"numoutlets" : 1,
									"fontsize" : 9.0,
									"outlettype" : [ "float" ],
									"patching_rect" : [ 66.0, 153.0, 93.0, 19.0 ],
									"id" : "obj-13"
								}

							}
, 							{
								"box" : 								{
									"maxclass" : "newobj",
									"text" : "line~ 200",
									"fontname" : "Geneva",
									"numinlets" : 2,
									"numoutlets" : 2,
									"fontsize" : 9.0,
									"outlettype" : [ "signal", "bang" ],
									"patching_rect" : [ 66.0, 221.0, 51.0, 19.0 ],
									"id" : "obj-14"
								}

							}
, 							{
								"box" : 								{
									"maxclass" : "flonum",
									"fontname" : "Geneva",
									"numinlets" : 1,
									"triscale" : 0.9,
									"numoutlets" : 2,
									"fontsize" : 9.0,
									"outlettype" : [ "float", "bang" ],
									"patching_rect" : [ 66.0, 179.0, 35.0, 19.0 ],
									"id" : "obj-15"
								}

							}
, 							{
								"box" : 								{
									"maxclass" : "message",
									"text" : "$1 490",
									"fontname" : "Geneva",
									"numinlets" : 2,
									"numoutlets" : 1,
									"fontsize" : 9.0,
									"outlettype" : [ "" ],
									"patching_rect" : [ 66.0, 199.0, 41.0, 17.0 ],
									"id" : "obj-16"
								}

							}
 ],
						"lines" : [ 							{
								"patchline" : 								{
									"source" : [ "obj-15", 0 ],
									"destination" : [ "obj-16", 0 ],
									"hidden" : 0,
									"midpoints" : [  ]
								}

							}
, 							{
								"patchline" : 								{
									"source" : [ "obj-13", 0 ],
									"destination" : [ "obj-15", 0 ],
									"hidden" : 0,
									"midpoints" : [  ]
								}

							}
, 							{
								"patchline" : 								{
									"source" : [ "obj-10", 0 ],
									"destination" : [ "obj-12", 0 ],
									"hidden" : 0,
									"midpoints" : [  ]
								}

							}
, 							{
								"patchline" : 								{
									"source" : [ "obj-10", 0 ],
									"destination" : [ "obj-7", 0 ],
									"hidden" : 0,
									"midpoints" : [  ]
								}

							}
, 							{
								"patchline" : 								{
									"source" : [ "obj-14", 0 ],
									"destination" : [ "obj-5", 0 ],
									"hidden" : 0,
									"midpoints" : [  ]
								}

							}
, 							{
								"patchline" : 								{
									"source" : [ "obj-14", 0 ],
									"destination" : [ "obj-8", 0 ],
									"hidden" : 0,
									"midpoints" : [  ]
								}

							}
, 							{
								"patchline" : 								{
									"source" : [ "obj-9", 0 ],
									"destination" : [ "obj-13", 2 ],
									"hidden" : 0,
									"midpoints" : [  ]
								}

							}
, 							{
								"patchline" : 								{
									"source" : [ "obj-3", 0 ],
									"destination" : [ "obj-11", 0 ],
									"hidden" : 0,
									"midpoints" : [  ]
								}

							}
, 							{
								"patchline" : 								{
									"source" : [ "obj-12", 0 ],
									"destination" : [ "obj-13", 0 ],
									"hidden" : 0,
									"midpoints" : [  ]
								}

							}
, 							{
								"patchline" : 								{
									"source" : [ "obj-7", 0 ],
									"destination" : [ "obj-6", 0 ],
									"hidden" : 0,
									"midpoints" : [  ]
								}

							}
, 							{
								"patchline" : 								{
									"source" : [ "obj-1", 0 ],
									"destination" : [ "obj-4", 0 ],
									"hidden" : 0,
									"midpoints" : [  ]
								}

							}
, 							{
								"patchline" : 								{
									"source" : [ "obj-4", 1 ],
									"destination" : [ "obj-9", 0 ],
									"hidden" : 0,
									"midpoints" : [  ]
								}

							}
, 							{
								"patchline" : 								{
									"source" : [ "obj-4", 0 ],
									"destination" : [ "obj-2", 0 ],
									"hidden" : 0,
									"midpoints" : [  ]
								}

							}
, 							{
								"patchline" : 								{
									"source" : [ "obj-4", 1 ],
									"destination" : [ "obj-3", 0 ],
									"hidden" : 0,
									"midpoints" : [  ]
								}

							}
, 							{
								"patchline" : 								{
									"source" : [ "obj-16", 0 ],
									"destination" : [ "obj-14", 0 ],
									"hidden" : 0,
									"midpoints" : [  ]
								}

							}
, 							{
								"patchline" : 								{
									"source" : [ "obj-11", 0 ],
									"destination" : [ "obj-10", 0 ],
									"hidden" : 0,
									"midpoints" : [  ]
								}

							}
, 							{
								"patchline" : 								{
									"source" : [ "obj-6", 0 ],
									"destination" : [ "obj-16", 0 ],
									"hidden" : 0,
									"midpoints" : [  ]
								}

							}
, 							{
								"patchline" : 								{
									"source" : [ "obj-2", 0 ],
									"destination" : [ "obj-10", 0 ],
									"hidden" : 0,
									"midpoints" : [  ]
								}

							}
 ]
					}
,
					"saved_object_attributes" : 					{
						"default_fontname" : "Arial",
						"fontname" : "Arial",
						"default_fontsize" : 12.0,
						"fontface" : 0,
						"fontsize" : 12.0,
						"default_fontface" : 0,
						"globalpatchername" : ""
					}

				}

			}
, 			{
				"box" : 				{
					"maxclass" : "newobj",
					"text" : "tapout~ 5",
					"fontname" : "Geneva",
					"numinlets" : 1,
					"numoutlets" : 1,
					"fontsize" : 9.0,
					"outlettype" : [ "signal" ],
					"patching_rect" : [ 107.0, 168.0, 55.0, 19.0 ],
					"id" : "obj-9"
				}

			}
, 			{
				"box" : 				{
					"maxclass" : "newobj",
					"text" : "tapout~ 5",
					"fontname" : "Geneva",
					"numinlets" : 1,
					"numoutlets" : 1,
					"fontsize" : 9.0,
					"outlettype" : [ "signal" ],
					"patching_rect" : [ 19.0, 168.0, 55.0, 19.0 ],
					"id" : "obj-10"
				}

			}
, 			{
				"box" : 				{
					"maxclass" : "newobj",
					"text" : "tapin~ 10",
					"fontname" : "Geneva",
					"numinlets" : 1,
					"numoutlets" : 1,
					"fontsize" : 9.0,
					"outlettype" : [ "tapconnect" ],
					"patching_rect" : [ 19.0, 96.0, 51.0, 19.0 ],
					"id" : "obj-11"
				}

			}
, 			{
				"box" : 				{
					"maxclass" : "outlet",
					"numinlets" : 1,
					"numoutlets" : 0,
					"patching_rect" : [ 107.0, 192.0, 15.0, 15.0 ],
					"id" : "obj-12",
					"comment" : "R"
				}

			}
, 			{
				"box" : 				{
					"maxclass" : "outlet",
					"numinlets" : 1,
					"numoutlets" : 0,
					"patching_rect" : [ 19.0, 192.0, 15.0, 15.0 ],
					"id" : "obj-13",
					"comment" : "L"
				}

			}
, 			{
				"box" : 				{
					"maxclass" : "inlet",
					"numinlets" : 0,
					"numoutlets" : 1,
					"outlettype" : [ "" ],
					"patching_rect" : [ 19.0, 43.0, 15.0, 15.0 ],
					"id" : "obj-14",
					"comment" : "signal"
				}

			}
, 			{
				"box" : 				{
					"maxclass" : "comment",
					"text" : "1999 by Gerhard Eckel & Karlheinz Essl",
					"fontname" : "Geneva",
					"numinlets" : 1,
					"numoutlets" : 0,
					"fontsize" : 9.0,
					"patching_rect" : [ 19.0, 220.0, 188.0, 19.0 ],
					"id" : "obj-15"
				}

			}
, 			{
				"box" : 				{
					"maxclass" : "comment",
					"text" : "max. delay time",
					"fontname" : "Geneva",
					"numinlets" : 1,
					"numoutlets" : 0,
					"fontsize" : 9.0,
					"patching_rect" : [ 154.0, 126.0, 80.0, 19.0 ],
					"id" : "obj-16"
				}

			}
 ],
		"lines" : [ 			{
				"patchline" : 				{
					"source" : [ "obj-1", 0 ],
					"destination" : [ "obj-3", 0 ],
					"hidden" : 0,
					"midpoints" : [  ]
				}

			}
, 			{
				"patchline" : 				{
					"source" : [ "obj-4", 0 ],
					"destination" : [ "obj-7", 0 ],
					"hidden" : 0,
					"midpoints" : [  ]
				}

			}
, 			{
				"patchline" : 				{
					"source" : [ "obj-4", 0 ],
					"destination" : [ "obj-8", 0 ],
					"hidden" : 0,
					"midpoints" : [  ]
				}

			}
, 			{
				"patchline" : 				{
					"source" : [ "obj-14", 0 ],
					"destination" : [ "obj-11", 0 ],
					"hidden" : 0,
					"midpoints" : [  ]
				}

			}
, 			{
				"patchline" : 				{
					"source" : [ "obj-11", 0 ],
					"destination" : [ "obj-9", 0 ],
					"hidden" : 0,
					"midpoints" : [ 28.5, 135.0, 116.5, 135.0 ]
				}

			}
, 			{
				"patchline" : 				{
					"source" : [ "obj-11", 0 ],
					"destination" : [ "obj-10", 0 ],
					"hidden" : 0,
					"midpoints" : [  ]
				}

			}
, 			{
				"patchline" : 				{
					"source" : [ "obj-10", 0 ],
					"destination" : [ "obj-13", 0 ],
					"hidden" : 0,
					"midpoints" : [  ]
				}

			}
, 			{
				"patchline" : 				{
					"source" : [ "obj-9", 0 ],
					"destination" : [ "obj-12", 0 ],
					"hidden" : 0,
					"midpoints" : [  ]
				}

			}
, 			{
				"patchline" : 				{
					"source" : [ "obj-8", 0 ],
					"destination" : [ "obj-10", 0 ],
					"hidden" : 0,
					"midpoints" : [  ]
				}

			}
, 			{
				"patchline" : 				{
					"source" : [ "obj-7", 0 ],
					"destination" : [ "obj-9", 0 ],
					"hidden" : 0,
					"midpoints" : [  ]
				}

			}
, 			{
				"patchline" : 				{
					"source" : [ "obj-6", 0 ],
					"destination" : [ "obj-3", 0 ],
					"hidden" : 0,
					"midpoints" : [  ]
				}

			}
, 			{
				"patchline" : 				{
					"source" : [ "obj-2", 0 ],
					"destination" : [ "obj-1", 0 ],
					"hidden" : 0,
					"midpoints" : [  ]
				}

			}
, 			{
				"patchline" : 				{
					"source" : [ "obj-5", 0 ],
					"destination" : [ "obj-4", 0 ],
					"hidden" : 0,
					"midpoints" : [  ]
				}

			}
, 			{
				"patchline" : 				{
					"source" : [ "obj-3", 0 ],
					"destination" : [ "obj-5", 0 ],
					"hidden" : 0,
					"midpoints" : [  ]
				}

			}
 ]
	}

}
