{
	"patcher" : 	{
		"fileversion" : 1,
		"rect" : [ 40.0, 55.0, 174.0, 238.0 ],
		"bglocked" : 0,
		"defrect" : [ 40.0, 55.0, 174.0, 238.0 ],
		"openrect" : [ 0.0, 0.0, 0.0, 0.0 ],
		"openinpresentation" : 0,
		"default_fontsize" : 12.0,
		"default_fontface" : 0,
		"default_fontname" : "Arial",
		"gridonopen" : 0,
		"gridsize" : [ 15.0, 15.0 ],
		"gridsnaponopen" : 0,
		"toolbarvisible" : 1,
		"boxanimatetime" : 200,
		"imprint" : 0,
		"enablehscroll" : 1,
		"enablevscroll" : 1,
		"devicewidth" : 0.0,
		"boxes" : [ 			{
				"box" : 				{
					"maxclass" : "comment",
					"text" : "1994 by Karlheinz Essl",
					"patching_rect" : [ 38.0, 157.0, 112.0, 19.0 ],
					"id" : "obj-1",
					"fontname" : "Geneva",
					"numinlets" : 1,
					"numoutlets" : 0,
					"fontsize" : 9.0
				}

			}
, 			{
				"box" : 				{
					"maxclass" : "inlet",
					"patching_rect" : [ 19.0, 35.0, 15.0, 15.0 ],
					"id" : "obj-2",
					"numinlets" : 0,
					"numoutlets" : 1,
					"outlettype" : [ "" ],
					"comment" : "list"
				}

			}
, 			{
				"box" : 				{
					"maxclass" : "outlet",
					"patching_rect" : [ 19.0, 156.0, 15.0, 15.0 ],
					"id" : "obj-3",
					"numinlets" : 1,
					"numoutlets" : 0,
					"comment" : "last element of list"
				}

			}
, 			{
				"box" : 				{
					"maxclass" : "newobj",
					"text" : "nth",
					"patching_rect" : [ 19.0, 125.0, 50.0, 19.0 ],
					"id" : "obj-4",
					"fontname" : "Geneva",
					"numinlets" : 2,
					"numoutlets" : 1,
					"fontsize" : 9.0,
					"outlettype" : [ "" ]
				}

			}
, 			{
				"box" : 				{
					"maxclass" : "newobj",
					"text" : "listlen",
					"patching_rect" : [ 19.0, 68.0, 36.0, 19.0 ],
					"id" : "obj-5",
					"fontname" : "Geneva",
					"numinlets" : 1,
					"numoutlets" : 1,
					"fontsize" : 9.0,
					"outlettype" : [ "" ]
				}

			}
, 			{
				"box" : 				{
					"maxclass" : "newobj",
					"text" : "- 1",
					"patching_rect" : [ 19.0, 95.0, 27.0, 19.0 ],
					"id" : "obj-6",
					"fontname" : "Geneva",
					"numinlets" : 2,
					"numoutlets" : 1,
					"fontsize" : 9.0,
					"outlettype" : [ "int" ]
				}

			}
 ],
		"lines" : [ 			{
				"patchline" : 				{
					"source" : [ "obj-4", 0 ],
					"destination" : [ "obj-3", 0 ],
					"hidden" : 0,
					"midpoints" : [  ]
				}

			}
, 			{
				"patchline" : 				{
					"source" : [ "obj-6", 0 ],
					"destination" : [ "obj-4", 0 ],
					"hidden" : 0,
					"midpoints" : [  ]
				}

			}
, 			{
				"patchline" : 				{
					"source" : [ "obj-2", 0 ],
					"destination" : [ "obj-4", 1 ],
					"hidden" : 0,
					"midpoints" : [ 28.0, 59.0, 59.5, 59.0 ]
				}

			}
, 			{
				"patchline" : 				{
					"source" : [ "obj-2", 0 ],
					"destination" : [ "obj-5", 0 ],
					"hidden" : 0,
					"midpoints" : [  ]
				}

			}
, 			{
				"patchline" : 				{
					"source" : [ "obj-5", 0 ],
					"destination" : [ "obj-6", 0 ],
					"hidden" : 0,
					"midpoints" : [  ]
				}

			}
 ]
	}

}
