{
	"patcher" : 	{
		"fileversion" : 1,
		"rect" : [ 256.0, 77.0, 315.0, 371.0 ],
		"bglocked" : 0,
		"defrect" : [ 256.0, 77.0, 315.0, 371.0 ],
		"openrect" : [ 0.0, 0.0, 0.0, 0.0 ],
		"openinpresentation" : 0,
		"default_fontsize" : 12.0,
		"default_fontface" : 0,
		"default_fontname" : "Arial",
		"gridonopen" : 0,
		"gridsize" : [ 15.0, 15.0 ],
		"gridsnaponopen" : 0,
		"toolbarvisible" : 1,
		"boxanimatetime" : 200,
		"imprint" : 0,
		"enablehscroll" : 1,
		"enablevscroll" : 1,
		"devicewidth" : 0.0,
		"boxes" : [ 			{
				"box" : 				{
					"maxclass" : "outlet",
					"numinlets" : 1,
					"numoutlets" : 0,
					"patching_rect" : [ 86.0, 297.0, 15.0, 15.0 ],
					"id" : "obj-1",
					"comment" : "pitch class"
				}

			}
, 			{
				"box" : 				{
					"maxclass" : "toggle",
					"numinlets" : 1,
					"numoutlets" : 1,
					"patching_rect" : [ 86.0, 91.0, 15.0, 15.0 ],
					"id" : "obj-2",
					"outlettype" : [ "int" ]
				}

			}
, 			{
				"box" : 				{
					"maxclass" : "inlet",
					"numinlets" : 0,
					"numoutlets" : 1,
					"patching_rect" : [ 186.0, 56.0, 15.0, 15.0 ],
					"id" : "obj-3",
					"outlettype" : [ "" ],
					"comment" : "interval"
				}

			}
, 			{
				"box" : 				{
					"maxclass" : "newobj",
					"text" : "int",
					"fontsize" : 9.0,
					"numinlets" : 2,
					"numoutlets" : 1,
					"patching_rect" : [ 163.0, 190.0, 42.0, 19.0 ],
					"fontname" : "Geneva",
					"id" : "obj-4",
					"outlettype" : [ "int" ]
				}

			}
, 			{
				"box" : 				{
					"maxclass" : "button",
					"numinlets" : 1,
					"numoutlets" : 1,
					"patching_rect" : [ 163.0, 148.0, 15.0, 15.0 ],
					"id" : "obj-5",
					"outlettype" : [ "bang" ]
				}

			}
, 			{
				"box" : 				{
					"maxclass" : "comment",
					"text" : "given interval",
					"linecount" : 2,
					"fontsize" : 9.0,
					"numinlets" : 1,
					"numoutlets" : 0,
					"patching_rect" : [ 127.0, 162.0, 47.0, 31.0 ],
					"fontname" : "Geneva",
					"id" : "obj-6"
				}

			}
, 			{
				"box" : 				{
					"maxclass" : "number",
					"fontsize" : 9.0,
					"numinlets" : 1,
					"numoutlets" : 2,
					"patching_rect" : [ 103.0, 166.0, 24.0, 19.0 ],
					"fontname" : "Geneva",
					"id" : "obj-7",
					"outlettype" : [ "int", "bang" ],
					"triscale" : 0.9
				}

			}
, 			{
				"box" : 				{
					"maxclass" : "newobj",
					"text" : "int",
					"fontsize" : 9.0,
					"numinlets" : 2,
					"numoutlets" : 1,
					"patching_rect" : [ 86.0, 188.0, 36.0, 19.0 ],
					"fontname" : "Geneva",
					"id" : "obj-8",
					"outlettype" : [ "int" ]
				}

			}
, 			{
				"box" : 				{
					"maxclass" : "newobj",
					"text" : "st2pitch",
					"fontsize" : 9.0,
					"numinlets" : 2,
					"numoutlets" : 2,
					"patching_rect" : [ 86.0, 241.0, 45.0, 19.0 ],
					"fontname" : "Geneva",
					"id" : "obj-9",
					"outlettype" : [ "int", "int" ]
				}

			}
, 			{
				"box" : 				{
					"maxclass" : "number",
					"fontface" : 1,
					"fontsize" : 9.0,
					"numinlets" : 1,
					"numoutlets" : 2,
					"patching_rect" : [ 86.0, 267.0, 35.0, 19.0 ],
					"fontname" : "Geneva",
					"id" : "obj-10",
					"format" : 4,
					"outlettype" : [ "int", "bang" ],
					"triscale" : 0.9,
					"triangle" : 0,
					"cantchange" : 1
				}

			}
, 			{
				"box" : 				{
					"maxclass" : "comment",
					"text" : "complimentary interval",
					"linecount" : 2,
					"fontsize" : 9.0,
					"numinlets" : 1,
					"numoutlets" : 0,
					"patching_rect" : [ 208.0, 164.0, 74.0, 31.0 ],
					"fontname" : "Geneva",
					"id" : "obj-11"
				}

			}
, 			{
				"box" : 				{
					"maxclass" : "number",
					"fontsize" : 9.0,
					"numinlets" : 1,
					"numoutlets" : 2,
					"patching_rect" : [ 186.0, 167.0, 22.492773, 19.0 ],
					"fontname" : "Geneva",
					"id" : "obj-12",
					"outlettype" : [ "int", "bang" ],
					"triscale" : 0.9
				}

			}
, 			{
				"box" : 				{
					"maxclass" : "newobj",
					"text" : "contrario 11",
					"fontsize" : 9.0,
					"numinlets" : 2,
					"numoutlets" : 1,
					"patching_rect" : [ 186.0, 121.0, 65.0, 19.0 ],
					"fontname" : "Geneva",
					"id" : "obj-13",
					"outlettype" : [ "float" ]
				}

			}
, 			{
				"box" : 				{
					"maxclass" : "newobj",
					"text" : "sel 1",
					"fontsize" : 9.0,
					"numinlets" : 2,
					"numoutlets" : 2,
					"patching_rect" : [ 86.0, 123.0, 96.0, 19.0 ],
					"fontname" : "Geneva",
					"id" : "obj-14",
					"outlettype" : [ "bang", "" ]
				}

			}
, 			{
				"box" : 				{
					"maxclass" : "inlet",
					"numinlets" : 0,
					"numoutlets" : 1,
					"patching_rect" : [ 86.0, 56.0, 15.0, 15.0 ],
					"id" : "obj-15",
					"outlettype" : [ "" ],
					"comment" : "bang (to calculate a pitch)"
				}

			}
, 			{
				"box" : 				{
					"maxclass" : "button",
					"numinlets" : 1,
					"numoutlets" : 1,
					"patching_rect" : [ 104.0, 56.0, 15.0, 15.0 ],
					"id" : "obj-16",
					"outlettype" : [ "bang" ]
				}

			}
, 			{
				"box" : 				{
					"maxclass" : "newobj",
					"text" : "int #1",
					"fontsize" : 9.0,
					"numinlets" : 2,
					"numoutlets" : 1,
					"patching_rect" : [ 186.0, 91.0, 50.0, 19.0 ],
					"fontname" : "Geneva",
					"id" : "obj-17",
					"outlettype" : [ "int" ]
				}

			}
, 			{
				"box" : 				{
					"maxclass" : "comment",
					"text" : "alternatively switching between given and complimentary interval",
					"linecount" : 6,
					"fontsize" : 9.0,
					"numinlets" : 1,
					"numoutlets" : 0,
					"patching_rect" : [ 9.0, 58.0, 74.0, 79.0 ],
					"fontname" : "Geneva",
					"id" : "obj-18"
				}

			}
, 			{
				"box" : 				{
					"maxclass" : "comment",
					"text" : "1993 by Karlheinz Essl",
					"fontsize" : 9.0,
					"numinlets" : 1,
					"numoutlets" : 0,
					"patching_rect" : [ 107.0, 299.0, 114.0, 19.0 ],
					"fontname" : "Geneva",
					"id" : "obj-19"
				}

			}
 ],
		"lines" : [ 			{
				"patchline" : 				{
					"source" : [ "obj-17", 0 ],
					"destination" : [ "obj-13", 0 ],
					"hidden" : 0,
					"midpoints" : [  ]
				}

			}
, 			{
				"patchline" : 				{
					"source" : [ "obj-17", 0 ],
					"destination" : [ "obj-7", 0 ],
					"hidden" : 0,
					"midpoints" : [  ]
				}

			}
, 			{
				"patchline" : 				{
					"source" : [ "obj-16", 0 ],
					"destination" : [ "obj-2", 0 ],
					"hidden" : 0,
					"midpoints" : [  ]
				}

			}
, 			{
				"patchline" : 				{
					"source" : [ "obj-15", 0 ],
					"destination" : [ "obj-17", 0 ],
					"hidden" : 0,
					"midpoints" : [  ]
				}

			}
, 			{
				"patchline" : 				{
					"source" : [ "obj-15", 0 ],
					"destination" : [ "obj-2", 0 ],
					"hidden" : 0,
					"midpoints" : [  ]
				}

			}
, 			{
				"patchline" : 				{
					"source" : [ "obj-14", 1 ],
					"destination" : [ "obj-5", 0 ],
					"hidden" : 0,
					"midpoints" : [  ]
				}

			}
, 			{
				"patchline" : 				{
					"source" : [ "obj-14", 0 ],
					"destination" : [ "obj-8", 0 ],
					"hidden" : 0,
					"midpoints" : [  ]
				}

			}
, 			{
				"patchline" : 				{
					"source" : [ "obj-13", 0 ],
					"destination" : [ "obj-12", 0 ],
					"hidden" : 0,
					"midpoints" : [  ]
				}

			}
, 			{
				"patchline" : 				{
					"source" : [ "obj-12", 0 ],
					"destination" : [ "obj-4", 1 ],
					"hidden" : 0,
					"midpoints" : [  ]
				}

			}
, 			{
				"patchline" : 				{
					"source" : [ "obj-10", 0 ],
					"destination" : [ "obj-1", 0 ],
					"hidden" : 0,
					"midpoints" : [  ]
				}

			}
, 			{
				"patchline" : 				{
					"source" : [ "obj-9", 0 ],
					"destination" : [ "obj-10", 0 ],
					"hidden" : 0,
					"midpoints" : [  ]
				}

			}
, 			{
				"patchline" : 				{
					"source" : [ "obj-4", 0 ],
					"destination" : [ "obj-9", 0 ],
					"hidden" : 0,
					"midpoints" : [  ]
				}

			}
, 			{
				"patchline" : 				{
					"source" : [ "obj-8", 0 ],
					"destination" : [ "obj-9", 0 ],
					"hidden" : 0,
					"midpoints" : [  ]
				}

			}
, 			{
				"patchline" : 				{
					"source" : [ "obj-7", 0 ],
					"destination" : [ "obj-8", 1 ],
					"hidden" : 0,
					"midpoints" : [  ]
				}

			}
, 			{
				"patchline" : 				{
					"source" : [ "obj-5", 0 ],
					"destination" : [ "obj-4", 0 ],
					"hidden" : 0,
					"midpoints" : [  ]
				}

			}
, 			{
				"patchline" : 				{
					"source" : [ "obj-3", 0 ],
					"destination" : [ "obj-17", 0 ],
					"hidden" : 0,
					"midpoints" : [  ]
				}

			}
, 			{
				"patchline" : 				{
					"source" : [ "obj-2", 0 ],
					"destination" : [ "obj-14", 0 ],
					"hidden" : 0,
					"midpoints" : [  ]
				}

			}
 ]
	}

}
