{
	"patcher" : 	{
		"fileversion" : 1,
		"rect" : [ 63.0, 44.0, 201.0, 356.0 ],
		"bglocked" : 0,
		"defrect" : [ 63.0, 44.0, 201.0, 356.0 ],
		"openrect" : [ 0.0, 0.0, 0.0, 0.0 ],
		"openinpresentation" : 0,
		"default_fontsize" : 12.0,
		"default_fontface" : 0,
		"default_fontname" : "Arial",
		"gridonopen" : 0,
		"gridsize" : [ 15.0, 15.0 ],
		"gridsnaponopen" : 0,
		"toolbarvisible" : 1,
		"boxanimatetime" : 200,
		"imprint" : 0,
		"enablehscroll" : 1,
		"enablevscroll" : 1,
		"devicewidth" : 0.0,
		"boxes" : [ 			{
				"box" : 				{
					"maxclass" : "inlet",
					"numinlets" : 0,
					"numoutlets" : 1,
					"patching_rect" : [ 84.0, 30.0, 15.0, 15.0 ],
					"id" : "obj-1",
					"outlettype" : [ "" ],
					"comment" : "reference note"
				}

			}
, 			{
				"box" : 				{
					"maxclass" : "newobj",
					"text" : "- #1",
					"fontsize" : 9.0,
					"numinlets" : 2,
					"numoutlets" : 1,
					"patching_rect" : [ 29.0, 78.0, 74.0, 19.0 ],
					"fontname" : "Geneva",
					"id" : "obj-2",
					"outlettype" : [ "int" ]
				}

			}
, 			{
				"box" : 				{
					"maxclass" : "inlet",
					"numinlets" : 0,
					"numoutlets" : 1,
					"patching_rect" : [ 29.0, 30.0, 15.0, 15.0 ],
					"id" : "obj-3",
					"outlettype" : [ "" ],
					"comment" : "pitch (= MIDI note nr.)"
				}

			}
, 			{
				"box" : 				{
					"maxclass" : "number",
					"fontsize" : 9.0,
					"numinlets" : 1,
					"numoutlets" : 2,
					"patching_rect" : [ 29.0, 55.0, 35.0, 19.0 ],
					"fontname" : "Geneva",
					"id" : "obj-4",
					"outlettype" : [ "int", "bang" ],
					"triscale" : 0.9
				}

			}
, 			{
				"box" : 				{
					"maxclass" : "number",
					"fontsize" : 9.0,
					"numinlets" : 1,
					"numoutlets" : 2,
					"patching_rect" : [ 29.0, 242.0, 30.0, 19.0 ],
					"fontname" : "Geneva",
					"id" : "obj-5",
					"outlettype" : [ "int", "bang" ],
					"triscale" : 0.9
				}

			}
, 			{
				"box" : 				{
					"maxclass" : "outlet",
					"numinlets" : 1,
					"numoutlets" : 0,
					"patching_rect" : [ 29.0, 270.0, 15.0, 15.0 ],
					"id" : "obj-6",
					"comment" : "interval (absolute)"
				}

			}
, 			{
				"box" : 				{
					"maxclass" : "newobj",
					"text" : "- 0",
					"fontsize" : 9.0,
					"numinlets" : 2,
					"numoutlets" : 1,
					"patching_rect" : [ 29.0, 166.0, 69.0, 19.0 ],
					"fontname" : "Geneva",
					"id" : "obj-7",
					"outlettype" : [ "int" ]
				}

			}
, 			{
				"box" : 				{
					"maxclass" : "outlet",
					"numinlets" : 1,
					"numoutlets" : 0,
					"patching_rect" : [ 124.0, 270.0, 15.0, 15.0 ],
					"id" : "obj-8",
					"comment" : "interval (modulo 12)"
				}

			}
, 			{
				"box" : 				{
					"maxclass" : "number",
					"fontsize" : 9.0,
					"numinlets" : 1,
					"numoutlets" : 2,
					"patching_rect" : [ 124.0, 242.0, 25.0, 19.0 ],
					"fontname" : "Geneva",
					"id" : "obj-9",
					"outlettype" : [ "int", "bang" ],
					"triscale" : 0.9
				}

			}
, 			{
				"box" : 				{
					"maxclass" : "number",
					"fontsize" : 9.0,
					"numinlets" : 1,
					"numoutlets" : 2,
					"patching_rect" : [ 79.0, 140.0, 35.0, 19.0 ],
					"fontname" : "Geneva",
					"id" : "obj-10",
					"outlettype" : [ "int", "bang" ],
					"triscale" : 0.9
				}

			}
, 			{
				"box" : 				{
					"maxclass" : "newobj",
					"text" : "Bucket",
					"fontsize" : 9.0,
					"numinlets" : 1,
					"numoutlets" : 1,
					"patching_rect" : [ 79.0, 114.0, 38.0, 19.0 ],
					"fontname" : "Geneva",
					"id" : "obj-11",
					"outlettype" : [ "" ]
				}

			}
, 			{
				"box" : 				{
					"maxclass" : "number",
					"fontsize" : 9.0,
					"numinlets" : 1,
					"numoutlets" : 2,
					"patching_rect" : [ 29.0, 140.0, 35.0, 19.0 ],
					"fontname" : "Geneva",
					"id" : "obj-12",
					"outlettype" : [ "int", "bang" ],
					"triscale" : 0.9
				}

			}
, 			{
				"box" : 				{
					"maxclass" : "message",
					"text" : "set 0",
					"fontsize" : 9.0,
					"numinlets" : 2,
					"numoutlets" : 1,
					"patching_rect" : [ 112.0, 78.0, 31.0, 17.0 ],
					"fontname" : "Geneva",
					"id" : "obj-13",
					"outlettype" : [ "" ]
				}

			}
, 			{
				"box" : 				{
					"maxclass" : "button",
					"numinlets" : 1,
					"numoutlets" : 1,
					"patching_rect" : [ 112.0, 55.0, 15.0, 15.0 ],
					"id" : "obj-14",
					"outlettype" : [ "bang" ]
				}

			}
, 			{
				"box" : 				{
					"maxclass" : "newobj",
					"text" : "divmod 12",
					"fontsize" : 9.0,
					"numinlets" : 2,
					"numoutlets" : 2,
					"patching_rect" : [ 79.0, 212.0, 64.0, 19.0 ],
					"fontname" : "Geneva",
					"id" : "obj-15",
					"outlettype" : [ "int", "int" ]
				}

			}
, 			{
				"box" : 				{
					"maxclass" : "comment",
					"text" : "1994 by Karlheinz Essl",
					"fontsize" : 9.0,
					"numinlets" : 1,
					"numoutlets" : 0,
					"patching_rect" : [ 29.0, 292.0, 114.0, 19.0 ],
					"fontname" : "Geneva",
					"id" : "obj-16"
				}

			}
 ],
		"lines" : [ 			{
				"patchline" : 				{
					"source" : [ "obj-13", 0 ],
					"destination" : [ "obj-11", 0 ],
					"hidden" : 0,
					"midpoints" : [  ]
				}

			}
, 			{
				"patchline" : 				{
					"source" : [ "obj-12", 0 ],
					"destination" : [ "obj-7", 0 ],
					"hidden" : 0,
					"midpoints" : [  ]
				}

			}
, 			{
				"patchline" : 				{
					"source" : [ "obj-10", 0 ],
					"destination" : [ "obj-7", 1 ],
					"hidden" : 0,
					"midpoints" : [  ]
				}

			}
, 			{
				"patchline" : 				{
					"source" : [ "obj-9", 0 ],
					"destination" : [ "obj-8", 0 ],
					"hidden" : 0,
					"midpoints" : [  ]
				}

			}
, 			{
				"patchline" : 				{
					"source" : [ "obj-5", 0 ],
					"destination" : [ "obj-6", 0 ],
					"hidden" : 0,
					"midpoints" : [  ]
				}

			}
, 			{
				"patchline" : 				{
					"source" : [ "obj-4", 0 ],
					"destination" : [ "obj-2", 0 ],
					"hidden" : 0,
					"midpoints" : [  ]
				}

			}
, 			{
				"patchline" : 				{
					"source" : [ "obj-2", 0 ],
					"destination" : [ "obj-11", 0 ],
					"hidden" : 0,
					"midpoints" : [  ]
				}

			}
, 			{
				"patchline" : 				{
					"source" : [ "obj-2", 0 ],
					"destination" : [ "obj-12", 0 ],
					"hidden" : 0,
					"midpoints" : [  ]
				}

			}
, 			{
				"patchline" : 				{
					"source" : [ "obj-15", 1 ],
					"destination" : [ "obj-9", 0 ],
					"hidden" : 0,
					"midpoints" : [  ]
				}

			}
, 			{
				"patchline" : 				{
					"source" : [ "obj-11", 0 ],
					"destination" : [ "obj-10", 0 ],
					"hidden" : 0,
					"midpoints" : [  ]
				}

			}
, 			{
				"patchline" : 				{
					"source" : [ "obj-14", 0 ],
					"destination" : [ "obj-13", 0 ],
					"hidden" : 0,
					"midpoints" : [  ]
				}

			}
, 			{
				"patchline" : 				{
					"source" : [ "obj-3", 0 ],
					"destination" : [ "obj-4", 0 ],
					"hidden" : 0,
					"midpoints" : [  ]
				}

			}
, 			{
				"patchline" : 				{
					"source" : [ "obj-1", 0 ],
					"destination" : [ "obj-14", 0 ],
					"hidden" : 0,
					"midpoints" : [  ]
				}

			}
, 			{
				"patchline" : 				{
					"source" : [ "obj-1", 0 ],
					"destination" : [ "obj-2", 1 ],
					"hidden" : 0,
					"midpoints" : [  ]
				}

			}
, 			{
				"patchline" : 				{
					"source" : [ "obj-7", 0 ],
					"destination" : [ "obj-15", 0 ],
					"hidden" : 0,
					"midpoints" : [  ]
				}

			}
, 			{
				"patchline" : 				{
					"source" : [ "obj-7", 0 ],
					"destination" : [ "obj-5", 0 ],
					"hidden" : 0,
					"midpoints" : [  ]
				}

			}
 ]
	}

}
