{
	"patcher" : 	{
		"fileversion" : 1,
		"rect" : [ 3.0, 44.0, 328.0, 461.0 ],
		"bglocked" : 0,
		"defrect" : [ 3.0, 44.0, 328.0, 461.0 ],
		"openrect" : [ 0.0, 0.0, 0.0, 0.0 ],
		"openinpresentation" : 0,
		"default_fontsize" : 12.0,
		"default_fontface" : 0,
		"default_fontname" : "Arial",
		"gridonopen" : 0,
		"gridsize" : [ 15.0, 15.0 ],
		"gridsnaponopen" : 0,
		"toolbarvisible" : 1,
		"boxanimatetime" : 200,
		"imprint" : 0,
		"enablehscroll" : 1,
		"enablevscroll" : 1,
		"devicewidth" : 0.0,
		"boxes" : [ 			{
				"box" : 				{
					"maxclass" : "message",
					"text" : "stop",
					"numoutlets" : 1,
					"fontsize" : 9.0,
					"patching_rect" : [ 26.0, 270.0, 32.5, 17.0 ],
					"outlettype" : [ "" ],
					"id" : "obj-1",
					"fontname" : "Geneva",
					"numinlets" : 2
				}

			}
, 			{
				"box" : 				{
					"maxclass" : "newobj",
					"text" : "sel stop",
					"numoutlets" : 2,
					"fontsize" : 9.0,
					"patching_rect" : [ 26.0, 55.0, 52.0, 19.0 ],
					"outlettype" : [ "bang", "" ],
					"id" : "obj-2",
					"fontname" : "Geneva",
					"numinlets" : 1
				}

			}
, 			{
				"box" : 				{
					"maxclass" : "newobj",
					"text" : "int #1",
					"numoutlets" : 1,
					"fontsize" : 9.0,
					"patching_rect" : [ 110.0, 154.0, 46.0, 19.0 ],
					"outlettype" : [ "int" ],
					"id" : "obj-3",
					"fontname" : "Geneva",
					"numinlets" : 2
				}

			}
, 			{
				"box" : 				{
					"maxclass" : "newobj",
					"text" : "int #2",
					"numoutlets" : 1,
					"fontsize" : 9.0,
					"patching_rect" : [ 159.0, 154.0, 55.0, 19.0 ],
					"outlettype" : [ "int" ],
					"id" : "obj-4",
					"fontname" : "Geneva",
					"numinlets" : 2
				}

			}
, 			{
				"box" : 				{
					"maxclass" : "number",
					"numoutlets" : 2,
					"fontsize" : 9.0,
					"patching_rect" : [ 159.0, 178.0, 35.0, 19.0 ],
					"outlettype" : [ "int", "bang" ],
					"id" : "obj-5",
					"triscale" : 0.9,
					"fontname" : "Geneva",
					"numinlets" : 1
				}

			}
, 			{
				"box" : 				{
					"maxclass" : "newobj",
					"text" : "t b b",
					"numoutlets" : 2,
					"fontsize" : 9.0,
					"patching_rect" : [ 159.0, 113.0, 32.5, 19.0 ],
					"outlettype" : [ "bang", "bang" ],
					"id" : "obj-6",
					"fontname" : "Geneva",
					"numinlets" : 1
				}

			}
, 			{
				"box" : 				{
					"maxclass" : "number",
					"numoutlets" : 2,
					"fontsize" : 9.0,
					"patching_rect" : [ 185.0, 249.0, 42.0, 19.0 ],
					"outlettype" : [ "int", "bang" ],
					"id" : "obj-7",
					"triscale" : 0.9,
					"fontname" : "Geneva",
					"minimum" : 500,
					"numinlets" : 1
				}

			}
, 			{
				"box" : 				{
					"maxclass" : "button",
					"numoutlets" : 1,
					"patching_rect" : [ 185.0, 203.0, 15.0, 15.0 ],
					"outlettype" : [ "bang" ],
					"id" : "obj-8",
					"numinlets" : 1
				}

			}
, 			{
				"box" : 				{
					"maxclass" : "number",
					"numoutlets" : 2,
					"fontsize" : 9.0,
					"patching_rect" : [ 159.0, 298.0, 46.0, 19.0 ],
					"outlettype" : [ "int", "bang" ],
					"id" : "obj-9",
					"triscale" : 0.9,
					"fontname" : "Geneva",
					"numinlets" : 1
				}

			}
, 			{
				"box" : 				{
					"maxclass" : "inlet",
					"numoutlets" : 1,
					"patching_rect" : [ 195.0, 32.0, 15.0, 15.0 ],
					"outlettype" : [ "" ],
					"id" : "obj-10",
					"numinlets" : 0,
					"comment" : "end ED"
				}

			}
, 			{
				"box" : 				{
					"maxclass" : "newobj",
					"text" : "metro 500",
					"numoutlets" : 1,
					"fontsize" : 9.0,
					"patching_rect" : [ 73.0, 322.0, 68.0, 19.0 ],
					"outlettype" : [ "bang" ],
					"id" : "obj-11",
					"fontname" : "Geneva",
					"numinlets" : 2
				}

			}
, 			{
				"box" : 				{
					"maxclass" : "inlet",
					"numoutlets" : 1,
					"patching_rect" : [ 26.0, 32.0, 15.0, 15.0 ],
					"outlettype" : [ "" ],
					"id" : "obj-12",
					"numinlets" : 0,
					"comment" : "trans time (ms)"
				}

			}
, 			{
				"box" : 				{
					"maxclass" : "inlet",
					"numoutlets" : 1,
					"patching_rect" : [ 137.0, 32.0, 15.0, 15.0 ],
					"outlettype" : [ "" ],
					"id" : "obj-13",
					"numinlets" : 0,
					"comment" : "start ED"
				}

			}
, 			{
				"box" : 				{
					"maxclass" : "button",
					"numoutlets" : 1,
					"patching_rect" : [ 59.0, 84.0, 16.0, 16.0 ],
					"outlettype" : [ "bang" ],
					"id" : "obj-14",
					"numinlets" : 1
				}

			}
, 			{
				"box" : 				{
					"maxclass" : "newobj",
					"text" : "int",
					"numoutlets" : 1,
					"fontsize" : 9.0,
					"patching_rect" : [ 185.0, 224.0, 64.0, 19.0 ],
					"outlettype" : [ "int" ],
					"id" : "obj-15",
					"fontname" : "Geneva",
					"numinlets" : 2
				}

			}
, 			{
				"box" : 				{
					"maxclass" : "newobj",
					"text" : "line 0 25",
					"numoutlets" : 2,
					"fontsize" : 9.0,
					"patching_rect" : [ 159.0, 270.0, 62.0, 19.0 ],
					"outlettype" : [ "", "" ],
					"id" : "obj-16",
					"fontname" : "Geneva",
					"numinlets" : 3
				}

			}
, 			{
				"box" : 				{
					"maxclass" : "newobj",
					"text" : "int 1",
					"numoutlets" : 1,
					"fontsize" : 9.0,
					"patching_rect" : [ 59.0, 270.0, 29.0, 19.0 ],
					"outlettype" : [ "int" ],
					"id" : "obj-17",
					"fontname" : "Geneva",
					"numinlets" : 2
				}

			}
, 			{
				"box" : 				{
					"maxclass" : "newobj",
					"text" : "delay 500",
					"numoutlets" : 1,
					"fontsize" : 9.0,
					"patching_rect" : [ 94.0, 270.0, 53.0, 19.0 ],
					"outlettype" : [ "bang" ],
					"id" : "obj-18",
					"fontname" : "Geneva",
					"numinlets" : 2
				}

			}
, 			{
				"box" : 				{
					"maxclass" : "newobj",
					"text" : "int 0",
					"numoutlets" : 1,
					"fontsize" : 9.0,
					"patching_rect" : [ 94.0, 297.0, 29.0, 19.0 ],
					"outlettype" : [ "int" ],
					"id" : "obj-19",
					"fontname" : "Geneva",
					"numinlets" : 2
				}

			}
, 			{
				"box" : 				{
					"maxclass" : "number",
					"numoutlets" : 2,
					"fontsize" : 9.0,
					"patching_rect" : [ 110.0, 178.0, 35.0, 19.0 ],
					"outlettype" : [ "int", "bang" ],
					"id" : "obj-20",
					"triscale" : 0.9,
					"fontname" : "Geneva",
					"numinlets" : 1
				}

			}
, 			{
				"box" : 				{
					"maxclass" : "newobj",
					"text" : "int",
					"numoutlets" : 1,
					"fontsize" : 9.0,
					"patching_rect" : [ 142.0, 349.0, 36.0, 19.0 ],
					"outlettype" : [ "int" ],
					"id" : "obj-21",
					"fontname" : "Geneva",
					"numinlets" : 2
				}

			}
, 			{
				"box" : 				{
					"maxclass" : "outlet",
					"numoutlets" : 0,
					"patching_rect" : [ 142.0, 374.0, 15.0, 15.0 ],
					"id" : "obj-22",
					"numinlets" : 1,
					"comment" : "ED"
				}

			}
, 			{
				"box" : 				{
					"maxclass" : "outlet",
					"numoutlets" : 0,
					"patching_rect" : [ 73.0, 374.0, 15.0, 15.0 ],
					"id" : "obj-23",
					"numinlets" : 1,
					"comment" : "rhythm bangs"
				}

			}
, 			{
				"box" : 				{
					"maxclass" : "comment",
					"text" : "1993-97 by Karlheinz Essl",
					"numoutlets" : 0,
					"fontsize" : 9.0,
					"patching_rect" : [ 166.0, 375.0, 129.0, 19.0 ],
					"id" : "obj-24",
					"fontname" : "Geneva",
					"numinlets" : 1
				}

			}
, 			{
				"box" : 				{
					"maxclass" : "comment",
					"text" : "vs. 1.2",
					"numoutlets" : 0,
					"fontsize" : 9.0,
					"patching_rect" : [ 166.0, 389.0, 40.0, 19.0 ],
					"id" : "obj-25",
					"fontname" : "Geneva",
					"numinlets" : 1
				}

			}
 ],
		"lines" : [ 			{
				"patchline" : 				{
					"source" : [ "obj-20", 0 ],
					"destination" : [ "obj-16", 0 ],
					"hidden" : 0,
					"midpoints" : [  ]
				}

			}
, 			{
				"patchline" : 				{
					"source" : [ "obj-9", 0 ],
					"destination" : [ "obj-21", 1 ],
					"hidden" : 0,
					"midpoints" : [  ]
				}

			}
, 			{
				"patchline" : 				{
					"source" : [ "obj-9", 0 ],
					"destination" : [ "obj-11", 1 ],
					"hidden" : 0,
					"midpoints" : [  ]
				}

			}
, 			{
				"patchline" : 				{
					"source" : [ "obj-7", 0 ],
					"destination" : [ "obj-16", 1 ],
					"hidden" : 0,
					"midpoints" : [  ]
				}

			}
, 			{
				"patchline" : 				{
					"source" : [ "obj-7", 0 ],
					"destination" : [ "obj-18", 1 ],
					"hidden" : 0,
					"midpoints" : [  ]
				}

			}
, 			{
				"patchline" : 				{
					"source" : [ "obj-5", 0 ],
					"destination" : [ "obj-16", 0 ],
					"hidden" : 0,
					"midpoints" : [  ]
				}

			}
, 			{
				"patchline" : 				{
					"source" : [ "obj-17", 0 ],
					"destination" : [ "obj-11", 0 ],
					"hidden" : 0,
					"midpoints" : [  ]
				}

			}
, 			{
				"patchline" : 				{
					"source" : [ "obj-14", 0 ],
					"destination" : [ "obj-6", 0 ],
					"hidden" : 0,
					"midpoints" : [  ]
				}

			}
, 			{
				"patchline" : 				{
					"source" : [ "obj-14", 0 ],
					"destination" : [ "obj-18", 0 ],
					"hidden" : 0,
					"midpoints" : [  ]
				}

			}
, 			{
				"patchline" : 				{
					"source" : [ "obj-14", 0 ],
					"destination" : [ "obj-17", 0 ],
					"hidden" : 0,
					"midpoints" : [  ]
				}

			}
, 			{
				"patchline" : 				{
					"source" : [ "obj-13", 0 ],
					"destination" : [ "obj-3", 1 ],
					"hidden" : 0,
					"midpoints" : [  ]
				}

			}
, 			{
				"patchline" : 				{
					"source" : [ "obj-12", 0 ],
					"destination" : [ "obj-2", 0 ],
					"hidden" : 0,
					"midpoints" : [  ]
				}

			}
, 			{
				"patchline" : 				{
					"source" : [ "obj-10", 0 ],
					"destination" : [ "obj-4", 1 ],
					"hidden" : 0,
					"midpoints" : [  ]
				}

			}
, 			{
				"patchline" : 				{
					"source" : [ "obj-18", 0 ],
					"destination" : [ "obj-19", 0 ],
					"hidden" : 0,
					"midpoints" : [  ]
				}

			}
, 			{
				"patchline" : 				{
					"source" : [ "obj-8", 0 ],
					"destination" : [ "obj-15", 0 ],
					"hidden" : 0,
					"midpoints" : [  ]
				}

			}
, 			{
				"patchline" : 				{
					"source" : [ "obj-2", 1 ],
					"destination" : [ "obj-15", 1 ],
					"hidden" : 0,
					"midpoints" : [  ]
				}

			}
, 			{
				"patchline" : 				{
					"source" : [ "obj-4", 0 ],
					"destination" : [ "obj-5", 0 ],
					"hidden" : 0,
					"midpoints" : [  ]
				}

			}
, 			{
				"patchline" : 				{
					"source" : [ "obj-2", 1 ],
					"destination" : [ "obj-14", 0 ],
					"hidden" : 0,
					"midpoints" : [  ]
				}

			}
, 			{
				"patchline" : 				{
					"source" : [ "obj-2", 0 ],
					"destination" : [ "obj-1", 0 ],
					"hidden" : 0,
					"midpoints" : [  ]
				}

			}
, 			{
				"patchline" : 				{
					"source" : [ "obj-21", 0 ],
					"destination" : [ "obj-22", 0 ],
					"hidden" : 0,
					"midpoints" : [  ]
				}

			}
, 			{
				"patchline" : 				{
					"source" : [ "obj-19", 0 ],
					"destination" : [ "obj-11", 0 ],
					"hidden" : 0,
					"midpoints" : [  ]
				}

			}
, 			{
				"patchline" : 				{
					"source" : [ "obj-4", 0 ],
					"destination" : [ "obj-8", 0 ],
					"hidden" : 0,
					"midpoints" : [  ]
				}

			}
, 			{
				"patchline" : 				{
					"source" : [ "obj-3", 0 ],
					"destination" : [ "obj-20", 0 ],
					"hidden" : 0,
					"midpoints" : [  ]
				}

			}
, 			{
				"patchline" : 				{
					"source" : [ "obj-16", 0 ],
					"destination" : [ "obj-9", 0 ],
					"hidden" : 0,
					"midpoints" : [  ]
				}

			}
, 			{
				"patchline" : 				{
					"source" : [ "obj-15", 0 ],
					"destination" : [ "obj-7", 0 ],
					"hidden" : 0,
					"midpoints" : [  ]
				}

			}
, 			{
				"patchline" : 				{
					"source" : [ "obj-11", 0 ],
					"destination" : [ "obj-21", 0 ],
					"hidden" : 0,
					"midpoints" : [  ]
				}

			}
, 			{
				"patchline" : 				{
					"source" : [ "obj-11", 0 ],
					"destination" : [ "obj-23", 0 ],
					"hidden" : 0,
					"midpoints" : [  ]
				}

			}
, 			{
				"patchline" : 				{
					"source" : [ "obj-6", 0 ],
					"destination" : [ "obj-4", 0 ],
					"hidden" : 0,
					"midpoints" : [  ]
				}

			}
, 			{
				"patchline" : 				{
					"source" : [ "obj-6", 1 ],
					"destination" : [ "obj-3", 0 ],
					"hidden" : 0,
					"midpoints" : [  ]
				}

			}
, 			{
				"patchline" : 				{
					"source" : [ "obj-1", 0 ],
					"destination" : [ "obj-11", 0 ],
					"hidden" : 0,
					"midpoints" : [  ]
				}

			}
 ]
	}

}
