{
	"patcher" : 	{
		"fileversion" : 1,
		"rect" : [ 50.0, 44.0, 253.0, 262.0 ],
		"bglocked" : 0,
		"defrect" : [ 50.0, 44.0, 253.0, 262.0 ],
		"openrect" : [ 0.0, 0.0, 0.0, 0.0 ],
		"openinpresentation" : 0,
		"default_fontsize" : 12.0,
		"default_fontface" : 0,
		"default_fontname" : "Arial",
		"gridonopen" : 0,
		"gridsize" : [ 15.0, 15.0 ],
		"gridsnaponopen" : 0,
		"toolbarvisible" : 1,
		"boxanimatetime" : 200,
		"imprint" : 0,
		"enablehscroll" : 1,
		"enablevscroll" : 1,
		"devicewidth" : 0.0,
		"boxes" : [ 			{
				"box" : 				{
					"maxclass" : "newobj",
					"text" : "del 100",
					"id" : "obj-1",
					"fontname" : "Arial",
					"numinlets" : 2,
					"fontsize" : 9.0,
					"numoutlets" : 1,
					"outlettype" : [ "bang" ],
					"patching_rect" : [ 50.0, 51.0, 43.0, 17.0 ]
				}

			}
, 			{
				"box" : 				{
					"maxclass" : "comment",
					"text" : "1997-2004 by Karlheinz Essl",
					"id" : "obj-2",
					"fontname" : "Arial",
					"numinlets" : 1,
					"fontsize" : 9.0,
					"numoutlets" : 0,
					"patching_rect" : [ 16.0, 180.0, 142.0, 17.0 ]
				}

			}
, 			{
				"box" : 				{
					"maxclass" : "message",
					"text" : ";\rmax hidemenubar",
					"linecount" : 2,
					"id" : "obj-3",
					"fontname" : "Arial",
					"numinlets" : 2,
					"fontsize" : 9.0,
					"numoutlets" : 1,
					"outlettype" : [ "" ],
					"patching_rect" : [ 124.0, 140.0, 85.0, 25.0 ]
				}

			}
, 			{
				"box" : 				{
					"maxclass" : "message",
					"text" : ";\rmax showmenubar",
					"linecount" : 2,
					"id" : "obj-4",
					"fontname" : "Arial",
					"numinlets" : 2,
					"fontsize" : 9.0,
					"numoutlets" : 1,
					"outlettype" : [ "" ],
					"patching_rect" : [ 18.0, 140.0, 91.0, 25.0 ]
				}

			}
, 			{
				"box" : 				{
					"maxclass" : "newobj",
					"text" : "TogEdge",
					"id" : "obj-5",
					"fontname" : "Arial",
					"numinlets" : 1,
					"fontsize" : 9.0,
					"numoutlets" : 2,
					"outlettype" : [ "bang", "bang" ],
					"patching_rect" : [ 18.0, 104.0, 125.0, 17.0 ]
				}

			}
, 			{
				"box" : 				{
					"maxclass" : "inlet",
					"id" : "obj-6",
					"numinlets" : 0,
					"numoutlets" : 1,
					"outlettype" : [ "" ],
					"patching_rect" : [ 18.0, 45.0, 15.0, 15.0 ],
					"comment" : ""
				}

			}
, 			{
				"box" : 				{
					"maxclass" : "newobj",
					"text" : "int #1",
					"id" : "obj-7",
					"fontname" : "Arial",
					"numinlets" : 2,
					"fontsize" : 9.0,
					"numoutlets" : 1,
					"outlettype" : [ "int" ],
					"patching_rect" : [ 18.0, 76.0, 35.0, 17.0 ]
				}

			}
, 			{
				"box" : 				{
					"maxclass" : "newobj",
					"text" : "loadbang",
					"id" : "obj-8",
					"fontname" : "Arial",
					"numinlets" : 1,
					"fontsize" : 9.0,
					"numoutlets" : 1,
					"outlettype" : [ "bang" ],
					"patching_rect" : [ 50.0, 28.0, 48.0, 17.0 ]
				}

			}
, 			{
				"box" : 				{
					"maxclass" : "comment",
					"text" : "vs. 1.1",
					"id" : "obj-9",
					"fontname" : "Arial",
					"numinlets" : 1,
					"fontsize" : 9.0,
					"numoutlets" : 0,
					"patching_rect" : [ 16.0, 194.0, 41.0, 17.0 ]
				}

			}
 ],
		"lines" : [ 			{
				"patchline" : 				{
					"source" : [ "obj-5", 1 ],
					"destination" : [ "obj-3", 0 ],
					"hidden" : 0,
					"midpoints" : [  ]
				}

			}
, 			{
				"patchline" : 				{
					"source" : [ "obj-8", 0 ],
					"destination" : [ "obj-1", 0 ],
					"hidden" : 0,
					"midpoints" : [  ]
				}

			}
, 			{
				"patchline" : 				{
					"source" : [ "obj-5", 0 ],
					"destination" : [ "obj-4", 0 ],
					"hidden" : 0,
					"midpoints" : [  ]
				}

			}
, 			{
				"patchline" : 				{
					"source" : [ "obj-7", 0 ],
					"destination" : [ "obj-5", 0 ],
					"hidden" : 0,
					"midpoints" : [  ]
				}

			}
, 			{
				"patchline" : 				{
					"source" : [ "obj-6", 0 ],
					"destination" : [ "obj-7", 0 ],
					"hidden" : 0,
					"midpoints" : [  ]
				}

			}
, 			{
				"patchline" : 				{
					"source" : [ "obj-1", 0 ],
					"destination" : [ "obj-7", 0 ],
					"hidden" : 0,
					"midpoints" : [  ]
				}

			}
 ]
	}

}
