{
	"patcher" : 	{
		"fileversion" : 1,
		"rect" : [ 0.0, 44.0, 416.0, 366.0 ],
		"bglocked" : 0,
		"defrect" : [ 0.0, 44.0, 416.0, 366.0 ],
		"openrect" : [ 0.0, 0.0, 0.0, 0.0 ],
		"openinpresentation" : 0,
		"default_fontsize" : 12.0,
		"default_fontface" : 0,
		"default_fontname" : "Arial",
		"gridonopen" : 0,
		"gridsize" : [ 15.0, 15.0 ],
		"gridsnaponopen" : 0,
		"toolbarvisible" : 1,
		"boxanimatetime" : 200,
		"imprint" : 0,
		"enablehscroll" : 1,
		"enablevscroll" : 1,
		"devicewidth" : 0.0,
		"boxes" : [ 			{
				"box" : 				{
					"maxclass" : "newobj",
					"text" : "butlast",
					"fontsize" : 12.0,
					"outlettype" : [ "" ],
					"id" : "obj-7",
					"fontname" : "Arial",
					"numinlets" : 1,
					"patching_rect" : [ 60.0, 211.0, 46.0, 20.0 ],
					"numoutlets" : 1
				}

			}
, 			{
				"box" : 				{
					"maxclass" : "message",
					"text" : "0.45 2 -76 shadock",
					"fontsize" : 12.0,
					"outlettype" : [ "" ],
					"id" : "obj-29",
					"fontname" : "Arial",
					"numinlets" : 2,
					"patching_rect" : [ 60.0, 173.0, 113.0, 18.0 ],
					"numoutlets" : 1
				}

			}
, 			{
				"box" : 				{
					"maxclass" : "message",
					"text" : "isaac dunstable machaut",
					"fontsize" : 12.0,
					"outlettype" : [ "" ],
					"id" : "obj-30",
					"fontname" : "Arial",
					"numinlets" : 2,
					"patching_rect" : [ 179.0, 173.0, 143.0, 18.0 ],
					"numoutlets" : 1
				}

			}
, 			{
				"box" : 				{
					"maxclass" : "message",
					"text" : "remove",
					"fontsize" : 10.0,
					"textcolor" : [ 1.0, 1.0, 1.0, 1.0 ],
					"outlettype" : [ "" ],
					"id" : "obj-2",
					"bgcolor" : [ 0.360784, 0.360784, 0.360784, 1.0 ],
					"fontname" : "Arial",
					"numinlets" : 2,
					"patching_rect" : [ 170.0, 97.0, 47.0, 16.0 ],
					"numoutlets" : 1,
					"fontface" : 1
				}

			}
, 			{
				"box" : 				{
					"maxclass" : "message",
					"text" : "butfirst",
					"fontsize" : 10.0,
					"textcolor" : [ 1.0, 1.0, 1.0, 1.0 ],
					"outlettype" : [ "" ],
					"id" : "obj-10",
					"bgcolor" : [ 0.360784, 0.360784, 0.360784, 1.0 ],
					"fontname" : "Arial",
					"numinlets" : 2,
					"patching_rect" : [ 137.0, 74.0, 45.0, 16.0 ],
					"numoutlets" : 1,
					"fontface" : 1
				}

			}
, 			{
				"box" : 				{
					"maxclass" : "message",
					"text" : "collect",
					"fontsize" : 10.0,
					"textcolor" : [ 1.0, 1.0, 1.0, 1.0 ],
					"outlettype" : [ "" ],
					"id" : "obj-11",
					"bgcolor" : [ 0.360784, 0.360784, 0.360784, 1.0 ],
					"fontname" : "Arial",
					"numinlets" : 2,
					"patching_rect" : [ 228.0, 97.0, 43.0, 16.0 ],
					"numoutlets" : 1,
					"fontface" : 1
				}

			}
, 			{
				"box" : 				{
					"maxclass" : "message",
					"text" : "multiple",
					"fontsize" : 10.0,
					"textcolor" : [ 1.0, 1.0, 1.0, 1.0 ],
					"outlettype" : [ "" ],
					"id" : "obj-12",
					"bgcolor" : [ 0.360784, 0.360784, 0.360784, 1.0 ],
					"fontname" : "Arial",
					"numinlets" : 2,
					"patching_rect" : [ 277.0, 74.0, 50.0, 16.0 ],
					"numoutlets" : 1,
					"fontface" : 1
				}

			}
, 			{
				"box" : 				{
					"maxclass" : "message",
					"text" : "last",
					"fontsize" : 10.0,
					"textcolor" : [ 1.0, 1.0, 1.0, 1.0 ],
					"outlettype" : [ "" ],
					"id" : "obj-13",
					"bgcolor" : [ 0.360784, 0.360784, 0.360784, 1.0 ],
					"fontname" : "Arial",
					"numinlets" : 2,
					"patching_rect" : [ 101.0, 74.0, 30.0, 16.0 ],
					"numoutlets" : 1,
					"fontface" : 1
				}

			}
, 			{
				"box" : 				{
					"maxclass" : "message",
					"text" : "sum",
					"fontsize" : 10.0,
					"textcolor" : [ 1.0, 1.0, 1.0, 1.0 ],
					"outlettype" : [ "" ],
					"id" : "obj-21",
					"bgcolor" : [ 0.360784, 0.360784, 0.360784, 1.0 ],
					"fontname" : "Arial",
					"numinlets" : 2,
					"patching_rect" : [ 237.0, 74.0, 32.0, 16.0 ],
					"numoutlets" : 1,
					"fontface" : 1
				}

			}
, 			{
				"box" : 				{
					"maxclass" : "message",
					"text" : "first",
					"fontsize" : 10.0,
					"textcolor" : [ 1.0, 1.0, 1.0, 1.0 ],
					"outlettype" : [ "" ],
					"id" : "obj-22",
					"bgcolor" : [ 0.360784, 0.360784, 0.360784, 1.0 ],
					"fontname" : "Arial",
					"numinlets" : 2,
					"patching_rect" : [ 64.0, 74.0, 29.0, 16.0 ],
					"numoutlets" : 1,
					"fontface" : 1
				}

			}
, 			{
				"box" : 				{
					"maxclass" : "message",
					"text" : "replace",
					"fontsize" : 10.0,
					"textcolor" : [ 1.0, 1.0, 1.0, 1.0 ],
					"outlettype" : [ "" ],
					"id" : "obj-24",
					"bgcolor" : [ 0.360784, 0.360784, 0.360784, 1.0 ],
					"fontname" : "Arial",
					"numinlets" : 2,
					"patching_rect" : [ 112.0, 97.0, 47.0, 16.0 ],
					"numoutlets" : 1,
					"fontface" : 1
				}

			}
, 			{
				"box" : 				{
					"maxclass" : "message",
					"text" : "insert",
					"fontsize" : 10.0,
					"textcolor" : [ 1.0, 1.0, 1.0, 1.0 ],
					"outlettype" : [ "" ],
					"id" : "obj-26",
					"bgcolor" : [ 0.360784, 0.360784, 0.360784, 1.0 ],
					"fontname" : "Arial",
					"numinlets" : 2,
					"patching_rect" : [ 64.0, 97.0, 39.0, 16.0 ],
					"numoutlets" : 1,
					"fontface" : 1
				}

			}
, 			{
				"box" : 				{
					"maxclass" : "message",
					"text" : "piece",
					"fontsize" : 10.0,
					"textcolor" : [ 1.0, 1.0, 1.0, 1.0 ],
					"outlettype" : [ "" ],
					"id" : "obj-27",
					"bgcolor" : [ 0.360784, 0.360784, 0.360784, 1.0 ],
					"fontname" : "Arial",
					"numinlets" : 2,
					"patching_rect" : [ 192.0, 74.0, 37.0, 16.0 ],
					"numoutlets" : 1,
					"fontface" : 1
				}

			}
, 			{
				"box" : 				{
					"maxclass" : "newobj",
					"text" : "key-bang 27",
					"fontsize" : 12.0,
					"outlettype" : [ "bang" ],
					"hidden" : 1,
					"id" : "obj-28",
					"fontname" : "Arial",
					"numinlets" : 1,
					"patching_rect" : [ 267.0, 242.0, 77.0, 20.0 ],
					"numoutlets" : 1
				}

			}
, 			{
				"box" : 				{
					"maxclass" : "newobj",
					"text" : "open-help",
					"fontsize" : 9.0,
					"hidden" : 1,
					"id" : "obj-32",
					"fontname" : "Arial",
					"numinlets" : 1,
					"patching_rect" : [ 257.0, 4.0, 51.0, 17.0 ],
					"numoutlets" : 0
				}

			}
, 			{
				"box" : 				{
					"maxclass" : "comment",
					"text" : "display",
					"fontsize" : 12.0,
					"id" : "obj-1",
					"fontname" : "Arial",
					"numinlets" : 1,
					"patching_rect" : [ 191.0, 271.0, 77.0, 20.0 ],
					"numoutlets" : 0
				}

			}
, 			{
				"box" : 				{
					"maxclass" : "message",
					"fontsize" : 12.0,
					"outlettype" : [ "" ],
					"id" : "obj-4",
					"fontname" : "Arial",
					"numinlets" : 2,
					"patching_rect" : [ 60.0, 271.0, 126.0, 18.0 ],
					"numoutlets" : 1
				}

			}
, 			{
				"box" : 				{
					"maxclass" : "comment",
					"text" : "clear display",
					"fontsize" : 12.0,
					"id" : "obj-17",
					"fontname" : "Arial",
					"numinlets" : 1,
					"patching_rect" : [ 124.0, 243.0, 77.0, 20.0 ],
					"numoutlets" : 0
				}

			}
, 			{
				"box" : 				{
					"maxclass" : "button",
					"outlettype" : [ "bang" ],
					"id" : "obj-18",
					"numinlets" : 1,
					"patching_rect" : [ 102.0, 243.0, 20.0, 20.0 ],
					"numoutlets" : 1
				}

			}
, 			{
				"box" : 				{
					"maxclass" : "newobj",
					"text" : "show",
					"fontsize" : 12.0,
					"outlettype" : [ "" ],
					"id" : "obj-19",
					"fontname" : "Arial",
					"numinlets" : 2,
					"patching_rect" : [ 60.0, 243.0, 39.0, 20.0 ],
					"numoutlets" : 1
				}

			}
, 			{
				"box" : 				{
					"maxclass" : "newobj",
					"text" : "loadbang",
					"fontsize" : 12.0,
					"outlettype" : [ "bang" ],
					"hidden" : 1,
					"id" : "obj-20",
					"fontname" : "Arial",
					"numinlets" : 1,
					"patching_rect" : [ 207.0, 243.0, 60.0, 20.0 ],
					"numoutlets" : 1
				}

			}
, 			{
				"box" : 				{
					"maxclass" : "comment",
					"text" : "see also:",
					"fontsize" : 12.0,
					"id" : "obj-8",
					"fontname" : "Arial",
					"numinlets" : 1,
					"patching_rect" : [ 0.0, 72.0, 61.0, 20.0 ],
					"numoutlets" : 0
				}

			}
, 			{
				"box" : 				{
					"maxclass" : "comment",
					"text" : "1994-2010 by Karlheinz Essl, vs. 2.0",
					"fontsize" : 10.0,
					"id" : "obj-9",
					"fontname" : "Arial",
					"numinlets" : 1,
					"patching_rect" : [ 0.0, 329.0, 173.0, 18.0 ],
					"numoutlets" : 0
				}

			}
, 			{
				"box" : 				{
					"maxclass" : "comment",
					"varname" : "autohelp_top_digest",
					"text" : "Lisp-like functions",
					"fontsize" : 12.754705,
					"textcolor" : [ 0.93, 0.93, 0.97, 1.0 ],
					"frgb" : [ 0.93, 0.93, 0.97, 1.0 ],
					"id" : "obj-25",
					"fontname" : "Arial",
					"numinlets" : 1,
					"patching_rect" : [ 0.0, 24.0, 112.0, 21.0 ],
					"numoutlets" : 0
				}

			}
, 			{
				"box" : 				{
					"maxclass" : "message",
					"text" : "RTC-Overview",
					"fontsize" : 12.0,
					"textcolor" : [ 1.0, 1.0, 1.0, 1.0 ],
					"outlettype" : [ "" ],
					"id" : "obj-23",
					"bgcolor" : [ 0.360784, 0.360784, 0.360784, 1.0 ],
					"fontname" : "Arial",
					"numinlets" : 2,
					"patching_rect" : [ 314.0, 27.0, 93.0, 18.0 ],
					"numoutlets" : 1,
					"fontface" : 1
				}

			}
, 			{
				"box" : 				{
					"maxclass" : "message",
					"text" : "Lists",
					"fontsize" : 12.0,
					"textcolor" : [ 1.0, 1.0, 1.0, 1.0 ],
					"outlettype" : [ "" ],
					"id" : "obj-38",
					"bgcolor" : [ 0.360784, 0.360784, 0.360784, 1.0 ],
					"fontname" : "Arial",
					"numinlets" : 2,
					"patching_rect" : [ 368.0, 4.0, 39.0, 18.0 ],
					"numoutlets" : 1,
					"fontface" : 1
				}

			}
, 			{
				"box" : 				{
					"maxclass" : "comment",
					"text" : "butlast",
					"fontsize" : 14.0,
					"textcolor" : [ 1.0, 1.0, 1.0, 1.0 ],
					"frgb" : [ 1.0, 1.0, 1.0, 1.0 ],
					"id" : "obj-15",
					"fontname" : "Arial",
					"numinlets" : 1,
					"patching_rect" : [ 0.0, 1.0, 56.0, 23.0 ],
					"numoutlets" : 0,
					"fontface" : 3
				}

			}
, 			{
				"box" : 				{
					"maxclass" : "comment",
					"text" : "Outputs the input list without its last element.",
					"fontsize" : 12.0,
					"id" : "obj-16",
					"fontname" : "Arial",
					"numinlets" : 1,
					"patching_rect" : [ 0.0, 51.0, 248.0, 20.0 ],
					"numoutlets" : 0
				}

			}
, 			{
				"box" : 				{
					"maxclass" : "panel",
					"varname" : "autohelp_top_panel",
					"grad2" : [ 0.85, 0.85, 0.85, 1.0 ],
					"mode" : 1,
					"id" : "obj-55",
					"numinlets" : 1,
					"background" : 1,
					"patching_rect" : [ 0.0, 0.0, 416.0, 51.0 ],
					"numoutlets" : 0,
					"grad1" : [ 0.0, 0.0, 0.0, 1.0 ],
					"rounded" : 0
				}

			}
 ],
		"lines" : [ 			{
				"patchline" : 				{
					"source" : [ "obj-30", 0 ],
					"destination" : [ "obj-7", 0 ],
					"hidden" : 0,
					"midpoints" : [ 188.5, 201.0, 69.5, 201.0 ]
				}

			}
, 			{
				"patchline" : 				{
					"source" : [ "obj-29", 0 ],
					"destination" : [ "obj-7", 0 ],
					"hidden" : 0,
					"midpoints" : [  ]
				}

			}
, 			{
				"patchline" : 				{
					"source" : [ "obj-7", 0 ],
					"destination" : [ "obj-19", 0 ],
					"hidden" : 0,
					"midpoints" : [  ]
				}

			}
, 			{
				"patchline" : 				{
					"source" : [ "obj-12", 0 ],
					"destination" : [ "obj-32", 0 ],
					"hidden" : 1,
					"midpoints" : [  ]
				}

			}
, 			{
				"patchline" : 				{
					"source" : [ "obj-21", 0 ],
					"destination" : [ "obj-32", 0 ],
					"hidden" : 1,
					"midpoints" : [  ]
				}

			}
, 			{
				"patchline" : 				{
					"source" : [ "obj-27", 0 ],
					"destination" : [ "obj-32", 0 ],
					"hidden" : 1,
					"midpoints" : [  ]
				}

			}
, 			{
				"patchline" : 				{
					"source" : [ "obj-10", 0 ],
					"destination" : [ "obj-32", 0 ],
					"hidden" : 1,
					"midpoints" : [  ]
				}

			}
, 			{
				"patchline" : 				{
					"source" : [ "obj-13", 0 ],
					"destination" : [ "obj-32", 0 ],
					"hidden" : 1,
					"midpoints" : [  ]
				}

			}
, 			{
				"patchline" : 				{
					"source" : [ "obj-22", 0 ],
					"destination" : [ "obj-32", 0 ],
					"hidden" : 1,
					"midpoints" : [  ]
				}

			}
, 			{
				"patchline" : 				{
					"source" : [ "obj-26", 0 ],
					"destination" : [ "obj-32", 0 ],
					"hidden" : 1,
					"midpoints" : [  ]
				}

			}
, 			{
				"patchline" : 				{
					"source" : [ "obj-24", 0 ],
					"destination" : [ "obj-32", 0 ],
					"hidden" : 1,
					"midpoints" : [  ]
				}

			}
, 			{
				"patchline" : 				{
					"source" : [ "obj-2", 0 ],
					"destination" : [ "obj-32", 0 ],
					"hidden" : 1,
					"midpoints" : [  ]
				}

			}
, 			{
				"patchline" : 				{
					"source" : [ "obj-11", 0 ],
					"destination" : [ "obj-32", 0 ],
					"hidden" : 1,
					"midpoints" : [  ]
				}

			}
, 			{
				"patchline" : 				{
					"source" : [ "obj-28", 0 ],
					"destination" : [ "obj-18", 0 ],
					"hidden" : 1,
					"midpoints" : [  ]
				}

			}
, 			{
				"patchline" : 				{
					"source" : [ "obj-19", 0 ],
					"destination" : [ "obj-4", 0 ],
					"hidden" : 0,
					"midpoints" : [  ]
				}

			}
, 			{
				"patchline" : 				{
					"source" : [ "obj-18", 0 ],
					"destination" : [ "obj-19", 1 ],
					"hidden" : 1,
					"midpoints" : [  ]
				}

			}
, 			{
				"patchline" : 				{
					"source" : [ "obj-20", 0 ],
					"destination" : [ "obj-18", 0 ],
					"hidden" : 1,
					"midpoints" : [  ]
				}

			}
, 			{
				"patchline" : 				{
					"source" : [ "obj-38", 0 ],
					"destination" : [ "obj-32", 0 ],
					"hidden" : 1,
					"midpoints" : [  ]
				}

			}
, 			{
				"patchline" : 				{
					"source" : [ "obj-23", 0 ],
					"destination" : [ "obj-32", 0 ],
					"hidden" : 1,
					"midpoints" : [  ]
				}

			}
 ]
	}

}
