{
	"patcher" : 	{
		"fileversion" : 1,
		"rect" : [ 102.0, 55.0, 253.0, 341.0 ],
		"bglocked" : 0,
		"defrect" : [ 102.0, 55.0, 253.0, 341.0 ],
		"openrect" : [ 0.0, 0.0, 0.0, 0.0 ],
		"openinpresentation" : 0,
		"default_fontsize" : 12.0,
		"default_fontface" : 0,
		"default_fontname" : "Arial",
		"gridonopen" : 0,
		"gridsize" : [ 15.0, 15.0 ],
		"gridsnaponopen" : 0,
		"toolbarvisible" : 1,
		"boxanimatetime" : 200,
		"imprint" : 0,
		"enablehscroll" : 1,
		"enablevscroll" : 1,
		"devicewidth" : 0.0,
		"boxes" : [ 			{
				"box" : 				{
					"maxclass" : "inlet",
					"numinlets" : 0,
					"numoutlets" : 1,
					"patching_rect" : [ 38.0, 63.0, 15.0, 15.0 ],
					"id" : "obj-1",
					"outlettype" : [ "" ],
					"comment" : "rhythm bangs"
				}

			}
, 			{
				"box" : 				{
					"maxclass" : "inlet",
					"numinlets" : 0,
					"numoutlets" : 1,
					"patching_rect" : [ 106.0, 63.0, 15.0, 15.0 ],
					"id" : "obj-2",
					"outlettype" : [ "" ],
					"comment" : "row"
				}

			}
, 			{
				"box" : 				{
					"maxclass" : "newobj",
					"text" : "listreg",
					"fontsize" : 9.0,
					"numinlets" : 2,
					"numoutlets" : 1,
					"patching_rect" : [ 106.0, 105.0, 38.0, 19.0 ],
					"fontname" : "Geneva",
					"id" : "obj-3",
					"outlettype" : [ "" ]
				}

			}
, 			{
				"box" : 				{
					"maxclass" : "newobj",
					"text" : "p transp",
					"fontsize" : 9.0,
					"numinlets" : 1,
					"numoutlets" : 1,
					"patching_rect" : [ 143.0, 133.0, 45.0, 19.0 ],
					"fontname" : "Geneva",
					"id" : "obj-4",
					"outlettype" : [ "int" ],
					"patcher" : 					{
						"fileversion" : 1,
						"rect" : [ 50.0, 40.0, 169.0, 276.0 ],
						"bglocked" : 0,
						"defrect" : [ 50.0, 40.0, 169.0, 276.0 ],
						"openrect" : [ 0.0, 0.0, 0.0, 0.0 ],
						"openinpresentation" : 0,
						"default_fontsize" : 12.0,
						"default_fontface" : 0,
						"default_fontname" : "Arial",
						"gridonopen" : 0,
						"gridsize" : [ 15.0, 15.0 ],
						"gridsnaponopen" : 0,
						"toolbarvisible" : 1,
						"boxanimatetime" : 200,
						"imprint" : 0,
						"enablehscroll" : 1,
						"enablevscroll" : 1,
						"devicewidth" : 0.0,
						"boxes" : [ 							{
								"box" : 								{
									"maxclass" : "number",
									"fontsize" : 9.0,
									"numinlets" : 1,
									"numoutlets" : 2,
									"patching_rect" : [ 43.0, 137.0, 24.0, 19.0 ],
									"fontname" : "Geneva",
									"id" : "obj-1",
									"outlettype" : [ "int", "bang" ],
									"triscale" : 0.9
								}

							}
, 							{
								"box" : 								{
									"maxclass" : "newobj",
									"text" : "- 0",
									"fontsize" : 9.0,
									"numinlets" : 2,
									"numoutlets" : 1,
									"patching_rect" : [ 43.0, 107.0, 40.0, 19.0 ],
									"fontname" : "Geneva",
									"id" : "obj-2",
									"outlettype" : [ "int" ]
								}

							}
, 							{
								"box" : 								{
									"maxclass" : "number",
									"fontsize" : 9.0,
									"numinlets" : 1,
									"numoutlets" : 2,
									"patching_rect" : [ 43.0, 86.0, 24.0, 19.0 ],
									"fontname" : "Geneva",
									"id" : "obj-3",
									"outlettype" : [ "int", "bang" ],
									"triscale" : 0.9
								}

							}
, 							{
								"box" : 								{
									"maxclass" : "newobj",
									"text" : "last",
									"fontsize" : 9.0,
									"numinlets" : 1,
									"numoutlets" : 1,
									"patching_rect" : [ 43.0, 63.0, 25.0, 19.0 ],
									"fontname" : "Geneva",
									"id" : "obj-4",
									"outlettype" : [ "" ]
								}

							}
, 							{
								"box" : 								{
									"maxclass" : "newobj",
									"text" : "first",
									"fontsize" : 9.0,
									"numinlets" : 1,
									"numoutlets" : 1,
									"patching_rect" : [ 73.0, 63.0, 29.0, 19.0 ],
									"fontname" : "Geneva",
									"id" : "obj-5",
									"outlettype" : [ "" ]
								}

							}
, 							{
								"box" : 								{
									"maxclass" : "number",
									"fontsize" : 9.0,
									"numinlets" : 1,
									"numoutlets" : 2,
									"patching_rect" : [ 73.0, 86.0, 24.0, 19.0 ],
									"fontname" : "Geneva",
									"id" : "obj-6",
									"outlettype" : [ "int", "bang" ],
									"triscale" : 0.9
								}

							}
, 							{
								"box" : 								{
									"maxclass" : "inlet",
									"numinlets" : 0,
									"numoutlets" : 1,
									"patching_rect" : [ 43.0, 34.0, 15.0, 15.0 ],
									"id" : "obj-7",
									"outlettype" : [ "" ],
									"comment" : "list"
								}

							}
, 							{
								"box" : 								{
									"maxclass" : "outlet",
									"numinlets" : 1,
									"numoutlets" : 0,
									"patching_rect" : [ 43.0, 163.0, 15.0, 15.0 ],
									"id" : "obj-8",
									"comment" : "transposition interval"
								}

							}
 ],
						"lines" : [ 							{
								"patchline" : 								{
									"source" : [ "obj-7", 0 ],
									"destination" : [ "obj-5", 0 ],
									"hidden" : 0,
									"midpoints" : [  ]
								}

							}
, 							{
								"patchline" : 								{
									"source" : [ "obj-7", 0 ],
									"destination" : [ "obj-4", 0 ],
									"hidden" : 0,
									"midpoints" : [  ]
								}

							}
, 							{
								"patchline" : 								{
									"source" : [ "obj-5", 0 ],
									"destination" : [ "obj-6", 0 ],
									"hidden" : 0,
									"midpoints" : [  ]
								}

							}
, 							{
								"patchline" : 								{
									"source" : [ "obj-6", 0 ],
									"destination" : [ "obj-2", 1 ],
									"hidden" : 0,
									"midpoints" : [  ]
								}

							}
, 							{
								"patchline" : 								{
									"source" : [ "obj-3", 0 ],
									"destination" : [ "obj-2", 0 ],
									"hidden" : 0,
									"midpoints" : [  ]
								}

							}
, 							{
								"patchline" : 								{
									"source" : [ "obj-1", 0 ],
									"destination" : [ "obj-8", 0 ],
									"hidden" : 0,
									"midpoints" : [  ]
								}

							}
, 							{
								"patchline" : 								{
									"source" : [ "obj-4", 0 ],
									"destination" : [ "obj-3", 0 ],
									"hidden" : 0,
									"midpoints" : [  ]
								}

							}
, 							{
								"patchline" : 								{
									"source" : [ "obj-2", 0 ],
									"destination" : [ "obj-1", 0 ],
									"hidden" : 0,
									"midpoints" : [  ]
								}

							}
 ]
					}
,
					"saved_object_attributes" : 					{
						"fontface" : 0,
						"fontsize" : 12.0,
						"default_fontface" : 0,
						"default_fontname" : "Arial",
						"fontname" : "Arial",
						"default_fontsize" : 12.0,
						"globalpatchername" : ""
					}

				}

			}
, 			{
				"box" : 				{
					"maxclass" : "outlet",
					"numinlets" : 1,
					"numoutlets" : 0,
					"patching_rect" : [ 38.0, 252.0, 15.0, 15.0 ],
					"id" : "obj-5",
					"comment" : ""
				}

			}
, 			{
				"box" : 				{
					"maxclass" : "number",
					"fontsize" : 9.0,
					"numinlets" : 1,
					"numoutlets" : 2,
					"patching_rect" : [ 143.0, 163.0, 24.0, 19.0 ],
					"fontname" : "Geneva",
					"id" : "obj-6",
					"outlettype" : [ "int", "bang" ],
					"triscale" : 0.9
				}

			}
, 			{
				"box" : 				{
					"maxclass" : "newobj",
					"text" : "transpose-row",
					"fontsize" : 9.0,
					"numinlets" : 2,
					"numoutlets" : 1,
					"patching_rect" : [ 143.0, 189.0, 75.0, 19.0 ],
					"fontname" : "Geneva",
					"id" : "obj-7",
					"outlettype" : [ "" ]
				}

			}
, 			{
				"box" : 				{
					"maxclass" : "button",
					"numinlets" : 1,
					"numoutlets" : 1,
					"patching_rect" : [ 106.0, 163.0, 15.0, 15.0 ],
					"id" : "obj-8",
					"outlettype" : [ "bang" ]
				}

			}
, 			{
				"box" : 				{
					"maxclass" : "newobj",
					"text" : "listreg",
					"fontsize" : 9.0,
					"numinlets" : 2,
					"numoutlets" : 1,
					"patching_rect" : [ 106.0, 217.0, 56.0, 19.0 ],
					"fontname" : "Geneva",
					"id" : "obj-9",
					"outlettype" : [ "" ]
				}

			}
, 			{
				"box" : 				{
					"maxclass" : "newobj",
					"text" : "anti-bis",
					"fontsize" : 9.0,
					"numinlets" : 1,
					"numoutlets" : 2,
					"patching_rect" : [ 38.0, 217.0, 43.0, 19.0 ],
					"fontname" : "Geneva",
					"id" : "obj-10",
					"outlettype" : [ "", "" ]
				}

			}
, 			{
				"box" : 				{
					"maxclass" : "number",
					"fontsize" : 9.0,
					"numinlets" : 1,
					"numoutlets" : 2,
					"patching_rect" : [ 38.0, 163.0, 28.0, 19.0 ],
					"fontname" : "Geneva",
					"id" : "obj-11",
					"outlettype" : [ "int", "bang" ],
					"triscale" : 0.9
				}

			}
, 			{
				"box" : 				{
					"maxclass" : "button",
					"numinlets" : 1,
					"numoutlets" : 1,
					"patching_rect" : [ 38.0, 105.0, 15.0, 15.0 ],
					"id" : "obj-12",
					"outlettype" : [ "bang" ]
				}

			}
, 			{
				"box" : 				{
					"maxclass" : "newobj",
					"text" : "sequence",
					"fontsize" : 9.0,
					"numinlets" : 2,
					"numoutlets" : 3,
					"patching_rect" : [ 38.0, 133.0, 87.0, 19.0 ],
					"fontname" : "Geneva",
					"id" : "obj-13",
					"outlettype" : [ "", "bang", "int" ]
				}

			}
, 			{
				"box" : 				{
					"maxclass" : "outlet",
					"numinlets" : 1,
					"numoutlets" : 0,
					"patching_rect" : [ 120.0, 189.0, 15.0, 15.0 ],
					"id" : "obj-14",
					"comment" : "bang when new modulation occurs"
				}

			}
, 			{
				"box" : 				{
					"maxclass" : "comment",
					"text" : "1994 by Karlheinz Essl",
					"fontsize" : 9.0,
					"numinlets" : 1,
					"numoutlets" : 0,
					"patching_rect" : [ 62.0, 254.0, 116.0, 19.0 ],
					"fontname" : "Geneva",
					"id" : "obj-15"
				}

			}
 ],
		"lines" : [ 			{
				"patchline" : 				{
					"source" : [ "obj-12", 0 ],
					"destination" : [ "obj-13", 0 ],
					"hidden" : 0,
					"midpoints" : [  ]
				}

			}
, 			{
				"patchline" : 				{
					"source" : [ "obj-13", 1 ],
					"destination" : [ "obj-8", 0 ],
					"hidden" : 0,
					"midpoints" : [  ]
				}

			}
, 			{
				"patchline" : 				{
					"source" : [ "obj-13", 0 ],
					"destination" : [ "obj-11", 0 ],
					"hidden" : 0,
					"midpoints" : [  ]
				}

			}
, 			{
				"patchline" : 				{
					"source" : [ "obj-10", 0 ],
					"destination" : [ "obj-5", 0 ],
					"hidden" : 0,
					"midpoints" : [  ]
				}

			}
, 			{
				"patchline" : 				{
					"source" : [ "obj-10", 1 ],
					"destination" : [ "obj-12", 0 ],
					"hidden" : 0,
					"midpoints" : [  ]
				}

			}
, 			{
				"patchline" : 				{
					"source" : [ "obj-9", 0 ],
					"destination" : [ "obj-3", 0 ],
					"hidden" : 0,
					"midpoints" : [ 115.5, 245.0, 93.0, 245.0, 93.0, 94.0, 115.5, 94.0 ]
				}

			}
, 			{
				"patchline" : 				{
					"source" : [ "obj-8", 0 ],
					"destination" : [ "obj-14", 0 ],
					"hidden" : 0,
					"midpoints" : [  ]
				}

			}
, 			{
				"patchline" : 				{
					"source" : [ "obj-8", 0 ],
					"destination" : [ "obj-9", 0 ],
					"hidden" : 0,
					"midpoints" : [  ]
				}

			}
, 			{
				"patchline" : 				{
					"source" : [ "obj-11", 0 ],
					"destination" : [ "obj-10", 0 ],
					"hidden" : 0,
					"midpoints" : [  ]
				}

			}
, 			{
				"patchline" : 				{
					"source" : [ "obj-7", 0 ],
					"destination" : [ "obj-9", 1 ],
					"hidden" : 0,
					"midpoints" : [  ]
				}

			}
, 			{
				"patchline" : 				{
					"source" : [ "obj-4", 0 ],
					"destination" : [ "obj-6", 0 ],
					"hidden" : 0,
					"midpoints" : [  ]
				}

			}
, 			{
				"patchline" : 				{
					"source" : [ "obj-6", 0 ],
					"destination" : [ "obj-7", 0 ],
					"hidden" : 0,
					"midpoints" : [  ]
				}

			}
, 			{
				"patchline" : 				{
					"source" : [ "obj-2", 0 ],
					"destination" : [ "obj-3", 0 ],
					"hidden" : 0,
					"midpoints" : [  ]
				}

			}
, 			{
				"patchline" : 				{
					"source" : [ "obj-1", 0 ],
					"destination" : [ "obj-12", 0 ],
					"hidden" : 0,
					"midpoints" : [  ]
				}

			}
, 			{
				"patchline" : 				{
					"source" : [ "obj-3", 0 ],
					"destination" : [ "obj-7", 1 ],
					"hidden" : 0,
					"midpoints" : [  ]
				}

			}
, 			{
				"patchline" : 				{
					"source" : [ "obj-3", 0 ],
					"destination" : [ "obj-4", 0 ],
					"hidden" : 0,
					"midpoints" : [  ]
				}

			}
, 			{
				"patchline" : 				{
					"source" : [ "obj-3", 0 ],
					"destination" : [ "obj-13", 1 ],
					"hidden" : 0,
					"midpoints" : [  ]
				}

			}
 ]
	}

}
